<svg width="36" height="36" viewBox="0 0 36 36" fill="none" xmlns="http://www.w3.org/2000/svg">
<rect width="36" height="36" rx="18" fill="url(#paint0_linear_12656_988)"/>
<path d="M24.7213 9.62463H20.5431V10.9895H23.6387L16.7772 17.0595L17.8686 18.0246L24.8338 11.865V14.7762H26.3772V11.087C26.375 10.2798 25.6342 9.62463 24.7213 9.62463Z" fill="white"/>
<path d="M24.9253 24.8691C24.9253 24.9251 24.8776 24.9728 24.8216 24.9728H11.1327C11.0767 24.9728 11.029 24.9251 11.029 24.8691V11.1802C11.029 11.1242 11.0767 11.0765 11.1327 11.0765H17.9875V9.62463H11.1327C10.2741 9.62463 9.57718 10.3215 9.57718 11.1802V24.8691C9.57718 25.7277 10.2741 26.4246 11.1327 26.4246H24.8216C25.6803 26.4246 26.3772 25.7277 26.3772 24.8691V18.008H24.9253V24.8691Z" fill="white"/>
<defs>
<linearGradient id="paint0_linear_12656_988" x1="-0.872617" y1="13.8308" x2="34.3379" y2="13.8308" gradientUnits="userSpaceOnUse">
<stop stop-color="#005AFF"/>
<stop offset="1" stop-color="#6A9EFF"/>
</linearGradient>
</defs>
</svg>
