<svg width="335" height="116" viewBox="0 0 335 116" fill="none" xmlns="http://www.w3.org/2000/svg">
<rect y="7.05225" width="335" height="108.511" rx="12" fill="white"/>
<path d="M17.246 57.5028H28.852V58.5108H17.246V57.5028ZM16.728 62.5008H29.286V63.5088H16.728V62.5008ZM25.086 58.0348H26.164V69.4868H25.086V58.0348ZM20.102 58.0208H21.166V61.8988C21.166 62.5802 21.1286 63.2662 21.054 63.9568C20.9793 64.6475 20.8206 65.3242 20.578 65.9868C20.3446 66.6402 19.99 67.2702 19.514 67.8768C19.038 68.4742 18.3986 69.0248 17.596 69.5288C17.5306 69.4355 17.4513 69.3422 17.358 69.2488C17.2646 69.1555 17.162 69.0622 17.05 68.9688C16.9473 68.8755 16.8493 68.8008 16.756 68.7448C17.512 68.2782 18.114 67.7742 18.562 67.2328C19.01 66.6915 19.3413 66.1268 19.556 65.5388C19.78 64.9508 19.9246 64.3488 19.99 63.7328C20.0646 63.1168 20.102 62.5055 20.102 61.8988V58.0208ZM37.392 67.8908H42.292V68.8568H37.392V67.8908ZM36.86 63.7888H42.838V69.4308H41.788V64.7548H37.868V69.4868H36.86V63.7888ZM35.894 61.4508C36.454 61.4135 37.098 61.3762 37.826 61.3388C38.5633 61.3015 39.3426 61.2595 40.164 61.2128C40.9946 61.1568 41.8253 61.1008 42.656 61.0448L42.642 61.9968C41.8486 62.0528 41.0553 62.1135 40.262 62.1788C39.4686 62.2442 38.708 62.3002 37.98 62.3468C37.2613 62.3935 36.608 62.4402 36.02 62.4868L35.894 61.4508ZM40.542 59.1828L41.382 58.7628C41.6993 59.1455 42.0073 59.5655 42.306 60.0228C42.6046 60.4708 42.8753 60.9142 43.118 61.3528C43.3606 61.7822 43.538 62.1695 43.65 62.5148L42.74 63.0188C42.628 62.6735 42.4553 62.2768 42.222 61.8288C41.9886 61.3808 41.7273 60.9282 41.438 60.4708C41.1486 60.0135 40.85 59.5842 40.542 59.1828ZM38.624 56.5788L39.786 56.8308C39.59 57.3908 39.3753 57.9882 39.142 58.6228C38.918 59.2575 38.6846 59.8688 38.442 60.4568C38.1993 61.0448 37.966 61.5628 37.742 62.0108L36.86 61.7588C37.0186 61.4135 37.182 61.0262 37.35 60.5968C37.518 60.1675 37.6766 59.7195 37.826 59.2528C37.9846 58.7768 38.134 58.3148 38.274 57.8668C38.414 57.4095 38.5306 56.9802 38.624 56.5788ZM30.616 59.4908H35.236V60.4708H30.616V59.4908ZM32.744 56.5788L33.738 56.7048C33.598 57.3955 33.4393 58.1422 33.262 58.9448C33.0846 59.7382 32.898 60.5362 32.702 61.3388C32.5153 62.1415 32.3286 62.9115 32.142 63.6488C31.9553 64.3768 31.7826 65.0302 31.624 65.6088L30.742 65.1468C30.9006 64.6148 31.0686 63.9988 31.246 63.2988C31.4326 62.5895 31.6146 61.8428 31.792 61.0588C31.9693 60.2748 32.142 59.5002 32.31 58.7348C32.478 57.9602 32.6226 57.2415 32.744 56.5788ZM31.316 64.7128L31.89 63.9848C32.4126 64.2742 32.9493 64.6055 33.5 64.9788C34.06 65.3522 34.5733 65.7348 35.04 66.1268C35.5066 66.5188 35.88 66.8922 36.16 67.2468L35.53 68.0868C35.25 67.7415 34.8766 67.3682 34.41 66.9668C33.9526 66.5562 33.4533 66.1548 32.912 65.7628C32.3706 65.3615 31.8386 65.0115 31.316 64.7128ZM34.83 59.4908H35.012L35.194 59.4488L35.824 59.5888C35.7026 61.3902 35.4506 62.9395 35.068 64.2368C34.6853 65.5248 34.186 66.5982 33.57 67.4568C32.954 68.3155 32.212 69.0015 31.344 69.5148C31.2693 69.3842 31.1666 69.2348 31.036 69.0668C30.9146 68.8988 30.798 68.7635 30.686 68.6608C31.47 68.2502 32.1466 67.6482 32.716 66.8548C33.2946 66.0522 33.7613 65.0582 34.116 63.8728C34.48 62.6782 34.718 61.2875 34.83 59.7008V59.4908ZM45.652 57.7688H49.516V66.8688H45.652V65.9168H48.536V58.7208H45.652V57.7688ZM45.694 61.7868H48.9V62.7248H45.694V61.7868ZM45.134 57.7688H46.142V68.0028H45.134V57.7688ZM50.16 59.3928H57.468V60.4428H50.16V59.3928ZM54.696 56.6628H55.76V67.8908C55.76 68.2735 55.704 68.5535 55.592 68.7308C55.4893 68.9175 55.312 69.0528 55.06 69.1368C54.808 69.2302 54.4533 69.2862 53.996 69.3048C53.5386 69.3235 52.96 69.3328 52.26 69.3328C52.232 69.1835 52.1806 69.0015 52.106 68.7868C52.0313 68.5815 51.952 68.4042 51.868 68.2548C52.2413 68.2642 52.5913 68.2735 52.918 68.2828C53.254 68.2922 53.5433 68.2968 53.786 68.2968C54.0286 68.2875 54.2013 68.2782 54.304 68.2688C54.444 68.2688 54.542 68.2408 54.598 68.1848C54.6633 68.1288 54.696 68.0308 54.696 67.8908V56.6628ZM50.636 62.0248L51.504 61.5628C51.756 61.9175 52.022 62.3002 52.302 62.7108C52.582 63.1215 52.8433 63.5182 53.086 63.9008C53.338 64.2835 53.5433 64.6195 53.702 64.9088L52.778 65.4408C52.6286 65.1515 52.4326 64.8108 52.19 64.4188C51.9566 64.0175 51.7 63.6068 51.42 63.1868C51.1493 62.7668 50.888 62.3795 50.636 62.0248ZM59.274 59.7428H60.352V69.4728H59.274V59.7428ZM59.484 57.2788L60.296 56.7748C60.52 56.9708 60.744 57.1902 60.968 57.4328C61.192 57.6662 61.402 57.8995 61.598 58.1328C61.794 58.3662 61.9433 58.5808 62.046 58.7768L61.178 59.3368C61.066 59.1502 60.9166 58.9355 60.73 58.6928C60.5526 58.4502 60.352 58.2075 60.128 57.9648C59.9133 57.7128 59.6986 57.4842 59.484 57.2788ZM62.928 57.3768H70.292V58.3708H62.928V57.3768ZM69.704 57.3768H70.782V68.1988C70.782 68.4882 70.7446 68.7075 70.67 68.8568C70.6046 69.0155 70.4786 69.1415 70.292 69.2348C70.1053 69.3188 69.858 69.3655 69.55 69.3748C69.2513 69.3935 68.8873 69.4028 68.458 69.4028C68.43 69.2722 68.3833 69.1088 68.318 68.9128C68.262 68.7262 68.1966 68.5675 68.122 68.4368C68.4206 68.4462 68.696 68.4508 68.948 68.4508C69.2 68.4508 69.3726 68.4508 69.466 68.4508C69.5593 68.4415 69.62 68.4182 69.648 68.3808C69.6853 68.3435 69.704 68.2828 69.704 68.1988V57.3768ZM63.306 64.2228V66.1128H66.666V64.2228H63.306ZM63.306 61.4788V63.3408H66.666V61.4788H63.306ZM62.354 60.5968H67.66V66.9808H62.354V60.5968ZM79 60.7368C78.72 60.7368 78.4726 60.6435 78.258 60.4568C78.0433 60.2608 77.936 60.0042 77.936 59.6868C77.936 59.3695 78.0433 59.1175 78.258 58.9308C78.4726 58.7348 78.72 58.6368 79 58.6368C79.28 58.6368 79.5273 58.7348 79.742 58.9308C79.9566 59.1175 80.064 59.3695 80.064 59.6868C80.064 60.0042 79.9566 60.2608 79.742 60.4568C79.5273 60.6435 79.28 60.7368 79 60.7368ZM79 67.5968C78.72 67.5968 78.4726 67.5035 78.258 67.3168C78.0433 67.1208 77.936 66.8642 77.936 66.5468C77.936 66.2202 78.0433 65.9635 78.258 65.7768C78.4726 65.5808 78.72 65.4828 79 65.4828C79.28 65.4828 79.5273 65.5808 79.742 65.7768C79.9566 65.9635 80.064 66.2202 80.064 66.5468C80.064 66.8642 79.9566 67.1208 79.742 67.3168C79.5273 67.5035 79.28 67.5968 79 67.5968ZM87.0539 68.3528V67.458L90.4147 63.779C90.8092 63.3481 91.134 62.9736 91.3892 62.6554C91.6444 62.3339 91.8333 62.0323 91.9559 61.7506C92.0819 61.4655 92.1449 61.1672 92.1449 60.8557C92.1449 60.4977 92.0587 60.1878 91.8863 59.926C91.7173 59.6642 91.4853 59.462 91.1903 59.3195C90.8953 59.1769 90.5639 59.1057 90.196 59.1057C89.8049 59.1057 89.4635 59.1869 89.1718 59.3493C88.8835 59.5084 88.6598 59.7321 88.5007 60.0205C88.3449 60.3088 88.267 60.6469 88.267 61.0347H87.0937C87.0937 60.4381 87.2313 59.9144 87.5064 59.4636C87.7815 59.0129 88.156 58.6616 88.6299 58.4097C89.1072 58.1578 89.6425 58.0318 90.2358 58.0318C90.8324 58.0318 91.361 58.1578 91.8217 58.4097C92.2824 58.6616 92.6437 59.0013 92.9055 59.4288C93.1673 59.8564 93.2983 60.332 93.2983 60.8557C93.2983 61.2302 93.2303 61.5965 93.0944 61.9544C92.9619 62.309 92.7298 62.7051 92.3984 63.1426C92.0703 63.5768 91.6146 64.1071 91.0312 64.7335L88.7443 67.1795V67.2591H93.4772V68.3528H87.0539ZM98.8515 68.492C98.1025 68.492 97.4645 68.2882 96.9375 67.8805C96.4105 67.4696 96.0078 66.8746 95.7294 66.0957C95.451 65.3135 95.3118 64.3689 95.3118 63.2619C95.3118 62.1616 95.451 61.2219 95.7294 60.443C96.0111 59.6608 96.4155 59.0643 96.9424 58.6533C97.4727 58.239 98.1091 58.0318 98.8515 58.0318C99.594 58.0318 100.229 58.239 100.756 58.6533C101.286 59.0643 101.69 59.6608 101.969 60.443C102.25 61.2219 102.391 62.1616 102.391 63.2619C102.391 64.3689 102.252 65.3135 101.974 66.0957C101.695 66.8746 101.293 67.4696 100.766 67.8805C100.239 68.2882 99.6006 68.492 98.8515 68.492ZM98.8515 67.3983C99.594 67.3983 100.171 67.0403 100.582 66.3244C100.993 65.6085 101.198 64.5877 101.198 63.2619C101.198 62.3803 101.104 61.6296 100.915 61.0098C100.729 60.39 100.461 59.9177 100.109 59.5929C99.7613 59.2681 99.3421 59.1057 98.8515 59.1057C98.1157 59.1057 97.5407 59.4686 97.1264 60.1945C96.7121 60.917 96.5049 61.9395 96.5049 63.2619C96.5049 64.1436 96.5977 64.8926 96.7834 65.5091C96.969 66.1256 97.2358 66.5946 97.5838 66.9161C97.9351 67.2376 98.3577 67.3983 98.8515 67.3983ZM104.281 68.3528V67.458L107.641 63.779C108.036 63.3481 108.361 62.9736 108.616 62.6554C108.871 62.3339 109.06 62.0323 109.182 61.7506C109.308 61.4655 109.371 61.1672 109.371 60.8557C109.371 60.4977 109.285 60.1878 109.113 59.926C108.944 59.6642 108.712 59.462 108.417 59.3195C108.122 59.1769 107.79 59.1057 107.423 59.1057C107.031 59.1057 106.69 59.1869 106.398 59.3493C106.11 59.5084 105.886 59.7321 105.727 60.0205C105.571 60.3088 105.494 60.6469 105.494 61.0347H104.32C104.32 60.4381 104.458 59.9144 104.733 59.4636C105.008 59.0129 105.383 58.6616 105.857 58.4097C106.334 58.1578 106.869 58.0318 107.462 58.0318C108.059 58.0318 108.588 58.1578 109.048 58.4097C109.509 58.6616 109.87 59.0013 110.132 59.4288C110.394 59.8564 110.525 60.332 110.525 60.8557C110.525 61.2302 110.457 61.5965 110.321 61.9544C110.188 62.309 109.956 62.7051 109.625 63.1426C109.297 63.5768 108.841 64.1071 108.258 64.7335L105.971 67.1795V67.2591H110.704V68.3528H104.281ZM116.138 68.492C115.72 68.4854 115.303 68.4059 114.885 68.2534C114.467 68.101 114.086 67.8441 113.741 67.4828C113.397 67.1182 113.12 66.626 112.911 66.0063C112.702 65.3831 112.598 64.601 112.598 63.6597C112.598 62.7581 112.682 61.9594 112.852 61.2634C113.021 60.564 113.266 59.9757 113.587 59.4984C113.909 59.0179 114.297 58.6533 114.751 58.4047C115.208 58.1561 115.723 58.0318 116.297 58.0318C116.867 58.0318 117.374 58.1462 117.818 58.3749C118.266 58.6002 118.63 58.9151 118.912 59.3195C119.194 59.7238 119.376 60.1895 119.459 60.7165H118.246C118.133 60.2591 117.914 59.8796 117.589 59.578C117.265 59.2764 116.834 59.1256 116.297 59.1256C115.508 59.1256 114.887 59.4686 114.432 60.1547C113.982 60.8408 113.755 61.8036 113.751 63.0432H113.831C114.017 62.7615 114.237 62.5212 114.492 62.3223C114.751 62.1201 115.036 61.9643 115.347 61.855C115.659 61.7456 115.989 61.6909 116.337 61.6909C116.92 61.6909 117.454 61.8367 117.937 62.1284C118.421 62.4168 118.809 62.8161 119.101 63.3266C119.392 63.8337 119.538 64.4153 119.538 65.0716C119.538 65.7013 119.397 66.278 119.116 66.8017C118.834 67.3221 118.438 67.7364 117.928 68.0446C117.42 68.3495 116.824 68.4987 116.138 68.492ZM116.138 67.3983C116.555 67.3983 116.93 67.2939 117.261 67.0851C117.596 66.8763 117.86 66.5962 118.052 66.2449C118.247 65.8936 118.345 65.5025 118.345 65.0716C118.345 64.6507 118.251 64.2679 118.062 63.9232C117.876 63.5751 117.619 63.2984 117.291 63.0929C116.966 62.8874 116.595 62.7847 116.178 62.7847C115.863 62.7847 115.569 62.8476 115.298 62.9736C115.026 63.0962 114.787 63.2652 114.582 63.4807C114.379 63.6961 114.22 63.943 114.104 64.2215C113.988 64.4965 113.93 64.7866 113.93 65.0915C113.93 65.4958 114.025 65.8737 114.214 66.225C114.406 66.5763 114.668 66.8597 114.999 67.0751C115.334 67.2906 115.714 67.3983 116.138 67.3983ZM124.317 56.5368L125.381 56.8168C125.12 57.4982 124.812 58.1655 124.457 58.8188C124.112 59.4628 123.734 60.0648 123.323 60.6248C122.913 61.1755 122.488 61.6608 122.049 62.0808C121.984 62.0248 121.895 61.9548 121.783 61.8708C121.681 61.7775 121.569 61.6888 121.447 61.6048C121.335 61.5208 121.233 61.4555 121.139 61.4088C121.587 61.0168 122.007 60.5688 122.399 60.0648C122.801 59.5515 123.165 58.9962 123.491 58.3988C123.818 57.7922 124.093 57.1715 124.317 56.5368ZM124.107 58.2868H133.137V59.2948H123.589L124.107 58.2868ZM123.421 61.4508H132.815V62.4448H124.471V65.7488H123.421V61.4508ZM121.111 65.2308H133.795V66.2388H121.111V65.2308ZM127.607 58.8188H128.685V69.4728H127.607V58.8188ZM138.934 68.492C138.277 68.492 137.693 68.3794 137.179 68.154C136.668 67.9286 136.262 67.6154 135.961 67.2143C135.662 66.81 135.5 66.341 135.474 65.8074H136.726C136.753 66.1355 136.866 66.4189 137.064 66.6575C137.263 66.8929 137.523 67.0751 137.845 67.2044C138.166 67.3337 138.523 67.3983 138.914 67.3983C139.351 67.3983 139.739 67.3221 140.077 67.1696C140.415 67.0171 140.68 66.805 140.873 66.5332C141.065 66.2615 141.161 65.9466 141.161 65.5886C141.161 65.2141 141.068 64.8843 140.883 64.5993C140.697 64.3109 140.425 64.0856 140.067 63.9232C139.709 63.7608 139.272 63.6795 138.755 63.6795H137.939V62.5858H138.755C139.159 62.5858 139.514 62.5129 139.819 62.367C140.127 62.2212 140.367 62.0157 140.54 61.7506C140.715 61.4854 140.803 61.1739 140.803 60.8159C140.803 60.4712 140.727 60.1713 140.574 59.9161C140.422 59.6608 140.206 59.462 139.928 59.3195C139.653 59.1769 139.328 59.1057 138.954 59.1057C138.602 59.1057 138.271 59.1703 137.959 59.2996C137.651 59.4255 137.399 59.6095 137.204 59.8514C137.008 60.0901 136.902 60.3784 136.885 60.7165H135.692C135.712 60.1829 135.873 59.7155 136.175 59.3145C136.476 58.9101 136.871 58.5953 137.358 58.3699C137.848 58.1445 138.387 58.0318 138.974 58.0318C139.603 58.0318 140.143 58.1594 140.594 58.4146C141.045 58.6665 141.391 58.9996 141.633 59.4139C141.875 59.8282 141.996 60.2757 141.996 60.7563C141.996 61.3296 141.845 61.8185 141.544 62.2229C141.246 62.6272 140.84 62.9073 140.326 63.0631V63.1426C140.969 63.2487 141.471 63.5221 141.832 63.9629C142.193 64.4004 142.374 64.9423 142.374 65.5886C142.374 66.1421 142.223 66.6393 141.922 67.0801C141.623 67.5176 141.216 67.8623 140.699 68.1142C140.182 68.3661 139.593 68.492 138.934 68.492ZM146.909 57.3348H154.203V58.3568H146.909V57.3348ZM146.909 60.7088H154.273V61.7028H146.909V60.7088ZM146.797 64.0828H154.203V65.1048H146.797V64.0828ZM146.251 57.3348H147.315V61.6468C147.315 62.2535 147.283 62.9022 147.217 63.5928C147.161 64.2835 147.04 64.9835 146.853 65.6928C146.667 66.3928 146.387 67.0695 146.013 67.7228C145.649 68.3762 145.164 68.9642 144.557 69.4868C144.511 69.4122 144.436 69.3235 144.333 69.2208C144.24 69.1182 144.142 69.0202 144.039 68.9268C143.937 68.8428 143.843 68.7775 143.759 68.7308C144.329 68.2268 144.777 67.6855 145.103 67.1068C145.439 66.5188 145.687 65.9122 145.845 65.2868C146.013 64.6615 146.121 64.0408 146.167 63.4248C146.223 62.7995 146.251 62.2068 146.251 61.6468V57.3348ZM153.741 57.3348H154.847V67.9188C154.847 68.2922 154.791 68.5768 154.679 68.7728C154.567 68.9688 154.381 69.1135 154.119 69.2068C153.849 69.3002 153.471 69.3562 152.985 69.3748C152.5 69.4028 151.884 69.4168 151.137 69.4168C151.119 69.3048 151.081 69.1835 151.025 69.0528C150.979 68.9222 150.923 68.7868 150.857 68.6468C150.801 68.5162 150.745 68.4042 150.689 68.3108C151.081 68.3202 151.455 68.3295 151.809 68.3388C152.173 68.3388 152.486 68.3388 152.747 68.3388C153.018 68.3295 153.205 68.3248 153.307 68.3248C153.475 68.3155 153.587 68.2828 153.643 68.2268C153.709 68.1615 153.741 68.0542 153.741 67.9048V57.3348ZM158.407 68.3528V67.458L161.768 63.779C162.163 63.3481 162.487 62.9736 162.743 62.6554C162.998 62.3339 163.187 62.0323 163.309 61.7506C163.435 61.4655 163.498 61.1672 163.498 60.8557C163.498 60.4977 163.412 60.1878 163.24 59.926C163.071 59.6642 162.839 59.462 162.544 59.3195C162.249 59.1769 161.917 59.1057 161.55 59.1057C161.158 59.1057 160.817 59.1869 160.525 59.3493C160.237 59.5084 160.013 59.7321 159.854 60.0205C159.698 60.3088 159.621 60.6469 159.621 61.0347H158.447C158.447 60.4381 158.585 59.9144 158.86 59.4636C159.135 59.0129 159.509 58.6616 159.983 58.4097C160.461 58.1578 160.996 58.0318 161.589 58.0318C162.186 58.0318 162.715 58.1578 163.175 58.4097C163.636 58.6616 163.997 59.0013 164.259 59.4288C164.521 59.8564 164.652 60.332 164.652 60.8557C164.652 61.2302 164.584 61.5965 164.448 61.9544C164.315 62.309 164.083 62.7051 163.752 63.1426C163.424 63.5768 162.968 64.1071 162.385 64.7335L160.098 67.1795V67.2591H164.831V68.3528H158.407ZM170.205 68.492C169.456 68.492 168.818 68.2882 168.291 67.8805C167.764 67.4696 167.361 66.8746 167.083 66.0957C166.804 65.3135 166.665 64.3689 166.665 63.2619C166.665 62.1616 166.804 61.2219 167.083 60.443C167.365 59.6608 167.769 59.0643 168.296 58.6533C168.826 58.239 169.463 58.0318 170.205 58.0318C170.947 58.0318 171.582 58.239 172.109 58.6533C172.639 59.0643 173.044 59.6608 173.322 60.443C173.604 61.2219 173.745 62.1616 173.745 63.2619C173.745 64.3689 173.606 65.3135 173.327 66.0957C173.049 66.8746 172.646 67.4696 172.119 67.8805C171.592 68.2882 170.954 68.492 170.205 68.492ZM170.205 67.3983C170.947 67.3983 171.524 67.0403 171.935 66.3244C172.346 65.6085 172.552 64.5877 172.552 63.2619C172.552 62.3803 172.457 61.6296 172.268 61.0098C172.083 60.39 171.814 59.9177 171.463 59.5929C171.115 59.2681 170.696 59.1057 170.205 59.1057C169.469 59.1057 168.894 59.4686 168.48 60.1945C168.066 60.917 167.858 61.9395 167.858 63.2619C167.858 64.1436 167.951 64.8926 168.137 65.5091C168.322 66.1256 168.589 66.5946 168.937 66.9161C169.289 67.2376 169.711 67.3983 170.205 67.3983ZM177.044 57.5448H186.228V69.2488H185.108V58.5948H178.122V69.3188H177.044V57.5448ZM177.772 62.3888H185.584V63.4248H177.772V62.3888ZM177.744 67.3588H185.598V68.4088H177.744V67.3588ZM197.151 58.171V68.3528H195.918V59.4636H195.858L193.373 61.1142V59.8614L195.918 58.171H197.151ZM203.46 68.492C203.042 68.4854 202.625 68.4059 202.207 68.2534C201.79 68.101 201.408 67.8441 201.064 67.4828C200.719 67.1182 200.442 66.626 200.233 66.0063C200.025 65.3831 199.92 64.601 199.92 63.6597C199.92 62.7581 200.005 61.9594 200.174 61.2634C200.343 60.564 200.588 59.9757 200.91 59.4984C201.231 59.0179 201.619 58.6533 202.073 58.4047C202.53 58.1561 203.046 58.0318 203.619 58.0318C204.189 58.0318 204.696 58.1462 205.14 58.3749C205.588 58.6002 205.952 58.9151 206.234 59.3195C206.516 59.7238 206.698 60.1895 206.781 60.7165H205.568C205.455 60.2591 205.237 59.8796 204.912 59.578C204.587 59.2764 204.156 59.1256 203.619 59.1256C202.83 59.1256 202.209 59.4686 201.755 60.1547C201.304 60.8408 201.077 61.8036 201.074 63.0432H201.153C201.339 62.7615 201.559 62.5212 201.814 62.3223C202.073 62.1201 202.358 61.9643 202.67 61.855C202.981 61.7456 203.311 61.6909 203.659 61.6909C204.242 61.6909 204.776 61.8367 205.26 62.1284C205.744 62.4168 206.131 62.8161 206.423 63.3266C206.715 63.8337 206.861 64.4153 206.861 65.0716C206.861 65.7013 206.72 66.278 206.438 66.8017C206.156 67.3221 205.76 67.7364 205.25 68.0446C204.743 68.3495 204.146 68.4987 203.46 68.492ZM203.46 67.3983C203.878 67.3983 204.252 67.2939 204.584 67.0851C204.918 66.8763 205.182 66.5962 205.374 66.2449C205.57 65.8936 205.667 65.5025 205.667 65.0716C205.667 64.6507 205.573 64.2679 205.384 63.9232C205.198 63.5751 204.942 63.2984 204.613 63.0929C204.289 62.8874 203.917 62.7847 203.5 62.7847C203.185 62.7847 202.892 62.8476 202.62 62.9736C202.348 63.0962 202.109 63.2652 201.904 63.4807C201.702 63.6961 201.543 63.943 201.427 64.2215C201.311 64.4965 201.253 64.7866 201.253 65.0915C201.253 65.4958 201.347 65.8737 201.536 66.225C201.728 66.5763 201.99 66.8597 202.322 67.0751C202.656 67.2906 203.036 67.3983 203.46 67.3983ZM209.691 67.0503C209.445 67.0503 209.235 66.9625 209.059 66.7868C208.884 66.6111 208.796 66.4007 208.796 66.1554C208.796 65.9101 208.884 65.6997 209.059 65.524C209.235 65.3483 209.445 65.2605 209.691 65.2605C209.936 65.2605 210.146 65.3483 210.322 65.524C210.498 65.6997 210.586 65.9101 210.586 66.1554C210.586 66.3178 210.544 66.467 210.461 66.6028C210.382 66.7387 210.274 66.8481 210.138 66.931C210.006 67.0105 209.856 67.0503 209.691 67.0503ZM209.691 61.8997C209.445 61.8997 209.235 61.8119 209.059 61.6362C208.884 61.4606 208.796 61.2501 208.796 61.0048C208.796 60.7596 208.884 60.5491 209.059 60.3734C209.235 60.1978 209.445 60.1099 209.691 60.1099C209.936 60.1099 210.146 60.1978 210.322 60.3734C210.498 60.5491 210.586 60.7596 210.586 61.0048C210.586 61.1672 210.544 61.3164 210.461 61.4523C210.382 61.5882 210.274 61.6975 210.138 61.7804C210.006 61.8599 209.856 61.8997 209.691 61.8997ZM215.992 68.492C215.243 68.492 214.605 68.2882 214.078 67.8805C213.551 67.4696 213.148 66.8746 212.87 66.0957C212.592 65.3135 212.452 64.3689 212.452 63.2619C212.452 62.1616 212.592 61.2219 212.87 60.443C213.152 59.6608 213.556 59.0643 214.083 58.6533C214.613 58.239 215.25 58.0318 215.992 58.0318C216.735 58.0318 217.369 58.239 217.896 58.6533C218.427 59.0643 218.831 59.6608 219.109 60.443C219.391 61.2219 219.532 62.1616 219.532 63.2619C219.532 64.3689 219.393 65.3135 219.114 66.0957C218.836 66.8746 218.433 67.4696 217.906 67.8805C217.379 68.2882 216.741 68.492 215.992 68.492ZM215.992 67.3983C216.735 67.3983 217.311 67.0403 217.722 66.3244C218.133 65.6085 218.339 64.5877 218.339 63.2619C218.339 62.3803 218.244 61.6296 218.055 61.0098C217.87 60.39 217.601 59.9177 217.25 59.5929C216.902 59.2681 216.483 59.1057 215.992 59.1057C215.256 59.1057 214.681 59.4686 214.267 60.1945C213.853 60.917 213.646 61.9395 213.646 63.2619C213.646 64.1436 213.738 64.8926 213.924 65.5091C214.11 66.1256 214.376 66.5946 214.724 66.9161C215.076 67.2376 215.498 67.3983 215.992 67.3983ZM224.742 68.492C223.993 68.492 223.355 68.2882 222.828 67.8805C222.301 67.4696 221.898 66.8746 221.62 66.0957C221.342 65.3135 221.202 64.3689 221.202 63.2619C221.202 62.1616 221.342 61.2219 221.62 60.443C221.902 59.6608 222.306 59.0643 222.833 58.6533C223.363 58.239 224 58.0318 224.742 58.0318C225.485 58.0318 226.119 58.239 226.646 58.6533C227.177 59.0643 227.581 59.6608 227.859 60.443C228.141 61.2219 228.282 62.1616 228.282 63.2619C228.282 64.3689 228.143 65.3135 227.864 66.0957C227.586 66.8746 227.183 67.4696 226.656 67.8805C226.129 68.2882 225.491 68.492 224.742 68.492ZM224.742 67.3983C225.485 67.3983 226.061 67.0403 226.472 66.3244C226.883 65.6085 227.089 64.5877 227.089 63.2619C227.089 62.3803 226.994 61.6296 226.805 61.0098C226.62 60.39 226.351 59.9177 226 59.5929C225.652 59.2681 225.233 59.1057 224.742 59.1057C224.006 59.1057 223.431 59.4686 223.017 60.1945C222.603 60.917 222.396 61.9395 222.396 63.2619C222.396 64.1436 222.488 64.8926 222.674 65.5091C222.86 66.1256 223.126 66.5946 223.474 66.9161C223.826 67.2376 224.248 67.3983 224.742 67.3983ZM234.546 63.2619C234.546 62.0091 234.709 60.8573 235.033 59.8067C235.361 58.7527 235.829 57.7832 236.435 56.8983H237.469C237.231 57.2264 237.007 57.6308 236.798 58.1114C236.593 58.5886 236.412 59.114 236.256 59.6874C236.101 60.2574 235.978 60.8474 235.888 61.4572C235.802 62.0671 235.759 62.6687 235.759 63.2619C235.759 64.0508 235.835 64.8512 235.988 65.6632C236.14 66.4752 236.346 67.2293 236.604 67.9253C236.863 68.6213 237.151 69.1881 237.469 69.6256H236.435C235.829 68.7406 235.361 67.7728 235.033 66.7222C234.709 65.6682 234.546 64.5148 234.546 63.2619ZM246.042 58.171H247.275V64.9125C247.275 65.6085 247.111 66.23 246.782 66.7768C246.458 67.3204 245.999 67.7496 245.405 68.0645C244.812 68.376 244.116 68.5318 243.317 68.5318C242.518 68.5318 241.822 68.376 241.229 68.0645C240.636 67.7496 240.175 67.3204 239.847 66.7768C239.522 66.23 239.36 65.6085 239.36 64.9125V58.171H240.593V64.8131C240.593 65.3102 240.702 65.7527 240.921 66.1405C241.14 66.525 241.451 66.8282 241.856 67.0503C242.263 67.269 242.751 67.3784 243.317 67.3784C243.884 67.3784 244.371 67.269 244.779 67.0503C245.187 66.8282 245.498 66.525 245.714 66.1405C245.932 65.7527 246.042 65.3102 246.042 64.8131V58.171ZM249.18 59.2648V58.171H256.816V59.2648H253.615V68.3528H252.382V59.2648H249.18ZM266.489 61.3528H265.256C265.183 60.9982 265.055 60.6867 264.873 60.4182C264.694 60.1497 264.475 59.9243 264.217 59.742C263.961 59.5564 263.678 59.4172 263.366 59.3244C263.055 59.2316 262.73 59.1852 262.392 59.1852C261.776 59.1852 261.217 59.341 260.717 59.6526C260.219 59.9641 259.823 60.4232 259.528 61.0297C259.237 61.6362 259.091 62.3803 259.091 63.2619C259.091 64.1436 259.237 64.8876 259.528 65.4942C259.823 66.1007 260.219 66.5598 260.717 66.8713C261.217 67.1829 261.776 67.3386 262.392 67.3386C262.73 67.3386 263.055 67.2922 263.366 67.1994C263.678 67.1066 263.961 66.9691 264.217 66.7868C264.475 66.6012 264.694 66.3742 264.873 66.1057C265.055 65.8339 265.183 65.5224 265.256 65.171H266.489C266.396 65.6914 266.227 66.1571 265.982 66.568C265.736 66.979 265.431 67.3287 265.067 67.617C264.702 67.9021 264.293 68.1192 263.839 68.2683C263.388 68.4175 262.906 68.492 262.392 68.492C261.524 68.492 260.751 68.2799 260.075 67.8557C259.399 67.4314 258.867 66.8282 258.479 66.046C258.092 65.2638 257.898 64.3358 257.898 63.2619C257.898 62.1881 258.092 61.26 258.479 60.4778C258.867 59.6956 259.399 59.0924 260.075 58.6682C260.751 58.2439 261.524 58.0318 262.392 58.0318C262.906 58.0318 263.388 58.1064 263.839 58.2555C264.293 58.4047 264.702 58.6234 265.067 58.9118C265.431 59.1968 265.736 59.5448 265.982 59.9558C266.227 60.3635 266.396 60.8292 266.489 61.3528ZM271.305 66.5631V60.0006H272.418V66.5631H271.305ZM268.58 63.8386V62.725H275.143V63.8386H268.58ZM280.792 68.492C280.109 68.492 279.506 68.3711 278.982 68.1291C278.462 67.8839 278.056 67.5474 277.764 67.1199C277.473 66.689 277.328 66.1985 277.332 65.6483C277.328 65.2174 277.413 64.8197 277.585 64.4551C277.758 64.0872 277.993 63.7806 278.291 63.5354C278.593 63.2868 278.929 63.1294 279.3 63.0631V63.0034C278.813 62.8775 278.425 62.604 278.137 62.1831C277.849 61.7589 277.706 61.2766 277.709 60.7364C277.706 60.2193 277.837 59.757 278.102 59.3493C278.367 58.9416 278.732 58.6201 279.196 58.3848C279.663 58.1495 280.195 58.0318 280.792 58.0318C281.382 58.0318 281.909 58.1495 282.373 58.3848C282.837 58.6201 283.201 58.9416 283.467 59.3493C283.735 59.757 283.871 60.2193 283.874 60.7364C283.871 61.2766 283.723 61.7589 283.432 62.1831C283.143 62.604 282.761 62.8775 282.283 63.0034V63.0631C282.651 63.1294 282.983 63.2868 283.278 63.5354C283.573 63.7806 283.808 64.0872 283.984 64.4551C284.159 64.8197 284.249 65.2174 284.252 65.6483C284.249 66.1985 284.1 66.689 283.805 67.1199C283.513 67.5474 283.107 67.8839 282.587 68.1291C282.07 68.3711 281.471 68.492 280.792 68.492ZM280.792 67.3983C281.253 67.3983 281.65 67.3237 281.985 67.1746C282.32 67.0254 282.578 66.815 282.761 66.5432C282.943 66.2714 283.036 65.9532 283.039 65.5886C283.036 65.2042 282.936 64.8644 282.741 64.5695C282.545 64.2745 282.278 64.0425 281.94 63.8734C281.606 63.7044 281.223 63.6199 280.792 63.6199C280.358 63.6199 279.97 63.7044 279.629 63.8734C279.29 64.0425 279.024 64.2745 278.828 64.5695C278.636 64.8644 278.541 65.2042 278.545 65.5886C278.541 65.9532 278.629 66.2714 278.808 66.5432C278.99 66.815 279.251 67.0254 279.589 67.1746C279.927 67.3237 280.328 67.3983 280.792 67.3983ZM280.792 62.5659C281.156 62.5659 281.48 62.493 281.761 62.3472C282.046 62.2013 282.27 61.9975 282.432 61.7357C282.595 61.4738 282.678 61.1672 282.681 60.8159C282.678 60.4712 282.597 60.1713 282.437 59.9161C282.278 59.6575 282.058 59.4587 281.776 59.3195C281.495 59.1769 281.166 59.1057 280.792 59.1057C280.411 59.1057 280.078 59.1769 279.793 59.3195C279.508 59.4587 279.287 59.6575 279.131 59.9161C278.976 60.1713 278.899 60.4712 278.903 60.8159C278.899 61.1672 278.977 61.4738 279.136 61.7357C279.299 61.9975 279.522 62.2013 279.807 62.3472C280.093 62.493 280.421 62.5659 280.792 62.5659ZM288.683 63.2619C288.683 64.5148 288.519 65.6682 288.191 66.7222C287.866 67.7728 287.4 68.7406 286.794 69.6256H285.76C285.998 69.2974 286.22 68.8931 286.426 68.4125C286.635 67.9352 286.817 67.4116 286.973 66.8415C287.129 66.2681 287.25 65.6765 287.336 65.0666C287.425 64.4535 287.47 63.8519 287.47 63.2619C287.47 62.4731 287.394 61.6727 287.241 60.8607C287.089 60.0486 286.883 59.2946 286.625 58.5986C286.366 57.9026 286.078 57.3358 285.76 56.8983H286.794C287.4 57.7832 287.866 58.7527 288.191 59.8067C288.519 60.8573 288.683 62.0091 288.683 63.2619ZM16.882 89.7768C16.8726 89.7022 16.8446 89.6042 16.798 89.4828C16.7513 89.3522 16.7046 89.2215 16.658 89.0908C16.6206 88.9602 16.5786 88.8482 16.532 88.7548C16.6906 88.7268 16.8586 88.6335 17.036 88.4748C17.2133 88.3068 17.414 88.0968 17.638 87.8448C17.7593 87.7235 17.9366 87.5182 18.17 87.2288C18.4126 86.9395 18.6786 86.5988 18.968 86.2068C19.2573 85.8148 19.5513 85.3902 19.85 84.9328C20.1486 84.4755 20.424 84.0135 20.676 83.5468L21.642 84.1348C21.0446 85.0682 20.4006 85.9782 19.71 86.8648C19.0193 87.7515 18.324 88.5308 17.624 89.2028V89.2308C17.624 89.2308 17.5866 89.2495 17.512 89.2868C17.4373 89.3148 17.3486 89.3568 17.246 89.4128C17.1526 89.4688 17.0686 89.5295 16.994 89.5948C16.9193 89.6602 16.882 89.7208 16.882 89.7768ZM16.882 89.7768L16.84 88.8948L17.386 88.5308L21.572 87.8448C21.5626 87.9848 21.5626 88.1482 21.572 88.3348C21.5906 88.5122 21.6093 88.6568 21.628 88.7688C20.648 88.9462 19.8593 89.0908 19.262 89.2028C18.674 89.3148 18.2213 89.4035 17.904 89.4688C17.596 89.5342 17.3673 89.5902 17.218 89.6368C17.078 89.6835 16.966 89.7302 16.882 89.7768ZM16.784 86.3748C16.7653 86.3002 16.7326 86.1975 16.686 86.0668C16.6486 85.9362 16.6066 85.8055 16.56 85.6748C16.5133 85.5348 16.4666 85.4182 16.42 85.3248C16.5506 85.2968 16.6813 85.2082 16.812 85.0588C16.9426 84.9095 17.078 84.7228 17.218 84.4988C17.302 84.3868 17.4186 84.2048 17.568 83.9528C17.7173 83.6915 17.8853 83.3835 18.072 83.0288C18.2586 82.6742 18.4406 82.2962 18.618 81.8948C18.8046 81.4935 18.968 81.0875 19.108 80.6768L20.186 81.1248C19.9433 81.6848 19.6726 82.2448 19.374 82.8048C19.0846 83.3555 18.7813 83.8875 18.464 84.4008C18.1466 84.9048 17.8246 85.3622 17.498 85.7728V85.8008C17.498 85.8008 17.4606 85.8195 17.386 85.8568C17.3206 85.8942 17.2366 85.9455 17.134 86.0108C17.0406 86.0668 16.9566 86.1275 16.882 86.1928C16.8166 86.2582 16.784 86.3188 16.784 86.3748ZM16.784 86.3748L16.77 85.5908L17.302 85.2548L20.256 85.0028C20.228 85.1335 20.2046 85.2828 20.186 85.4508C20.1673 85.6188 20.158 85.7588 20.158 85.8708C19.4953 85.9455 18.954 86.0108 18.534 86.0668C18.114 86.1135 17.7873 86.1555 17.554 86.1928C17.33 86.2302 17.162 86.2628 17.05 86.2908C16.938 86.3188 16.8493 86.3468 16.784 86.3748ZM16.49 91.6108C16.9286 91.5362 17.4233 91.4475 17.974 91.3448C18.534 91.2328 19.122 91.1162 19.738 90.9948C20.3633 90.8642 20.984 90.7382 21.6 90.6168L21.684 91.5828C20.8066 91.7882 19.9246 91.9842 19.038 92.1708C18.1606 92.3575 17.372 92.5302 16.672 92.6888L16.49 91.6108ZM21.712 82.4688H29.202V83.4768H21.712V82.4688ZM22.062 85.6608H28.964V86.6688H22.062V85.6608ZM23 91.9048H28.068V92.8568H23V91.9048ZM24.946 80.5788H26.024V86.1788H24.946V80.5788ZM22.426 88.0968H28.614V93.4028H27.564V89.0488H23.448V93.4588H22.426V88.0968ZM31.064 82.0768H42.978V83.0708H31.064V82.0768ZM36.44 80.6068H37.518V93.4728H36.44V80.6068ZM36.328 88.0688L37.21 88.4748C36.874 88.9508 36.4773 89.4128 36.02 89.8608C35.572 90.3088 35.0866 90.7335 34.564 91.1348C34.0413 91.5268 33.5 91.8815 32.94 92.1988C32.38 92.5162 31.8293 92.7868 31.288 93.0108C31.2413 92.9175 31.1713 92.8148 31.078 92.7028C30.994 92.6002 30.9053 92.4975 30.812 92.3948C30.728 92.2922 30.644 92.2035 30.56 92.1288C31.1013 91.9422 31.6473 91.7088 32.198 91.4288C32.758 91.1395 33.29 90.8175 33.794 90.4628C34.3073 90.0988 34.7786 89.7162 35.208 89.3148C35.6466 88.9042 36.02 88.4888 36.328 88.0688ZM37.7 88.0968C38.1106 88.6568 38.6286 89.1982 39.254 89.7208C39.8793 90.2435 40.5606 90.7148 41.298 91.1348C42.0446 91.5455 42.7866 91.8722 43.524 92.1148C43.4493 92.1895 43.3606 92.2782 43.258 92.3808C43.1646 92.4835 43.076 92.5908 42.992 92.7028C42.908 92.8242 42.8333 92.9315 42.768 93.0248C42.0306 92.7355 41.2886 92.3575 40.542 91.8908C39.8046 91.4242 39.114 90.9015 38.47 90.3228C37.826 89.7348 37.28 89.1235 36.832 88.4888L37.7 88.0968ZM33.038 85.5348V87.6908H40.948V85.5348H33.038ZM32.03 84.5968H42.026V88.6288H32.03V84.5968ZM45.652 81.7688H49.516V90.8688H45.652V89.9168H48.536V82.7208H45.652V81.7688ZM45.694 85.7868H48.9V86.7248H45.694V85.7868ZM45.134 81.7688H46.142V92.0028H45.134V81.7688ZM50.16 83.3928H57.468V84.4428H50.16V83.3928ZM54.696 80.6628H55.76V91.8908C55.76 92.2735 55.704 92.5535 55.592 92.7308C55.4893 92.9175 55.312 93.0528 55.06 93.1368C54.808 93.2302 54.4533 93.2862 53.996 93.3048C53.5386 93.3235 52.96 93.3328 52.26 93.3328C52.232 93.1835 52.1806 93.0015 52.106 92.7868C52.0313 92.5815 51.952 92.4042 51.868 92.2548C52.2413 92.2642 52.5913 92.2735 52.918 92.2828C53.254 92.2922 53.5433 92.2968 53.786 92.2968C54.0286 92.2875 54.2013 92.2782 54.304 92.2688C54.444 92.2688 54.542 92.2408 54.598 92.1848C54.6633 92.1288 54.696 92.0308 54.696 91.8908V80.6628ZM50.636 86.0248L51.504 85.5628C51.756 85.9175 52.022 86.3002 52.302 86.7108C52.582 87.1215 52.8433 87.5182 53.086 87.9008C53.338 88.2835 53.5433 88.6195 53.702 88.9088L52.778 89.4408C52.6286 89.1515 52.4326 88.8108 52.19 88.4188C51.9566 88.0175 51.7 87.6068 51.42 87.1868C51.1493 86.7668 50.888 86.3795 50.636 86.0248ZM59.274 83.7428H60.352V93.4728H59.274V83.7428ZM59.484 81.2788L60.296 80.7748C60.52 80.9708 60.744 81.1902 60.968 81.4328C61.192 81.6662 61.402 81.8995 61.598 82.1328C61.794 82.3662 61.9433 82.5808 62.046 82.7768L61.178 83.3368C61.066 83.1502 60.9166 82.9355 60.73 82.6928C60.5526 82.4502 60.352 82.2075 60.128 81.9648C59.9133 81.7128 59.6986 81.4842 59.484 81.2788ZM62.928 81.3768H70.292V82.3708H62.928V81.3768ZM69.704 81.3768H70.782V92.1988C70.782 92.4882 70.7446 92.7075 70.67 92.8568C70.6046 93.0155 70.4786 93.1415 70.292 93.2348C70.1053 93.3188 69.858 93.3655 69.55 93.3748C69.2513 93.3935 68.8873 93.4028 68.458 93.4028C68.43 93.2722 68.3833 93.1088 68.318 92.9128C68.262 92.7262 68.1966 92.5675 68.122 92.4368C68.4206 92.4462 68.696 92.4508 68.948 92.4508C69.2 92.4508 69.3726 92.4508 69.466 92.4508C69.5593 92.4415 69.62 92.4182 69.648 92.3808C69.6853 92.3435 69.704 92.2828 69.704 92.1988V81.3768ZM63.306 88.2228V90.1128H66.666V88.2228H63.306ZM63.306 85.4788V87.3408H66.666V85.4788H63.306ZM62.354 84.5968H67.66V90.9808H62.354V84.5968ZM79 84.7368C78.72 84.7368 78.4726 84.6435 78.258 84.4568C78.0433 84.2608 77.936 84.0042 77.936 83.6868C77.936 83.3695 78.0433 83.1175 78.258 82.9308C78.4726 82.7348 78.72 82.6368 79 82.6368C79.28 82.6368 79.5273 82.7348 79.742 82.9308C79.9566 83.1175 80.064 83.3695 80.064 83.6868C80.064 84.0042 79.9566 84.2608 79.742 84.4568C79.5273 84.6435 79.28 84.7368 79 84.7368ZM79 91.5968C78.72 91.5968 78.4726 91.5035 78.258 91.3168C78.0433 91.1208 77.936 90.8642 77.936 90.5468C77.936 90.2202 78.0433 89.9635 78.258 89.7768C78.4726 89.5808 78.72 89.4828 79 89.4828C79.28 89.4828 79.5273 89.5808 79.742 89.7768C79.9566 89.9635 80.064 90.2202 80.064 90.5468C80.064 90.8642 79.9566 91.1208 79.742 91.3168C79.5273 91.5035 79.28 91.5968 79 91.5968ZM87.0539 92.3528V91.458L90.4147 87.779C90.8092 87.3481 91.134 86.9736 91.3892 86.6554C91.6444 86.3339 91.8333 86.0323 91.9559 85.7506C92.0819 85.4655 92.1449 85.1672 92.1449 84.8557C92.1449 84.4977 92.0587 84.1878 91.8863 83.926C91.7173 83.6642 91.4853 83.462 91.1903 83.3195C90.8953 83.1769 90.5639 83.1057 90.196 83.1057C89.8049 83.1057 89.4635 83.1869 89.1718 83.3493C88.8835 83.5084 88.6598 83.7321 88.5007 84.0205C88.3449 84.3088 88.267 84.6469 88.267 85.0347H87.0937C87.0937 84.4381 87.2313 83.9144 87.5064 83.4636C87.7815 83.0129 88.156 82.6616 88.6299 82.4097C89.1072 82.1578 89.6425 82.0318 90.2358 82.0318C90.8324 82.0318 91.361 82.1578 91.8217 82.4097C92.2824 82.6616 92.6437 83.0013 92.9055 83.4288C93.1673 83.8564 93.2983 84.332 93.2983 84.8557C93.2983 85.2302 93.2303 85.5965 93.0944 85.9544C92.9619 86.309 92.7298 86.7051 92.3984 87.1426C92.0703 87.5768 91.6146 88.1071 91.0312 88.7335L88.7443 91.1795V91.2591H93.4772V92.3528H87.0539ZM98.8515 92.492C98.1025 92.492 97.4645 92.2882 96.9375 91.8805C96.4105 91.4696 96.0078 90.8746 95.7294 90.0957C95.451 89.3135 95.3118 88.3689 95.3118 87.2619C95.3118 86.1616 95.451 85.2219 95.7294 84.443C96.0111 83.6608 96.4155 83.0643 96.9424 82.6533C97.4727 82.239 98.1091 82.0318 98.8515 82.0318C99.594 82.0318 100.229 82.239 100.756 82.6533C101.286 83.0643 101.69 83.6608 101.969 84.443C102.25 85.2219 102.391 86.1616 102.391 87.2619C102.391 88.3689 102.252 89.3135 101.974 90.0957C101.695 90.8746 101.293 91.4696 100.766 91.8805C100.239 92.2882 99.6006 92.492 98.8515 92.492ZM98.8515 91.3983C99.594 91.3983 100.171 91.0403 100.582 90.3244C100.993 89.6085 101.198 88.5877 101.198 87.2619C101.198 86.3803 101.104 85.6296 100.915 85.0098C100.729 84.39 100.461 83.9177 100.109 83.5929C99.7613 83.2681 99.3421 83.1057 98.8515 83.1057C98.1157 83.1057 97.5407 83.4686 97.1264 84.1945C96.7121 84.917 96.5049 85.9395 96.5049 87.2619C96.5049 88.1436 96.5977 88.8926 96.7834 89.5091C96.969 90.1256 97.2358 90.5946 97.5838 90.9161C97.9351 91.2376 98.3577 91.3983 98.8515 91.3983ZM104.281 92.3528V91.458L107.641 87.779C108.036 87.3481 108.361 86.9736 108.616 86.6554C108.871 86.3339 109.06 86.0323 109.182 85.7506C109.308 85.4655 109.371 85.1672 109.371 84.8557C109.371 84.4977 109.285 84.1878 109.113 83.926C108.944 83.6642 108.712 83.462 108.417 83.3195C108.122 83.1769 107.79 83.1057 107.423 83.1057C107.031 83.1057 106.69 83.1869 106.398 83.3493C106.11 83.5084 105.886 83.7321 105.727 84.0205C105.571 84.3088 105.494 84.6469 105.494 85.0347H104.32C104.32 84.4381 104.458 83.9144 104.733 83.4636C105.008 83.0129 105.383 82.6616 105.857 82.4097C106.334 82.1578 106.869 82.0318 107.462 82.0318C108.059 82.0318 108.588 82.1578 109.048 82.4097C109.509 82.6616 109.87 83.0013 110.132 83.4288C110.394 83.8564 110.525 84.332 110.525 84.8557C110.525 85.2302 110.457 85.5965 110.321 85.9544C110.188 86.309 109.956 86.7051 109.625 87.1426C109.297 87.5768 108.841 88.1071 108.258 88.7335L105.971 91.1795V91.2591H110.704V92.3528H104.281ZM116.138 92.492C115.72 92.4854 115.303 92.4059 114.885 92.2534C114.467 92.101 114.086 91.8441 113.741 91.4828C113.397 91.1182 113.12 90.626 112.911 90.0063C112.702 89.3831 112.598 88.601 112.598 87.6597C112.598 86.7581 112.682 85.9594 112.852 85.2634C113.021 84.564 113.266 83.9757 113.587 83.4984C113.909 83.0179 114.297 82.6533 114.751 82.4047C115.208 82.1561 115.723 82.0318 116.297 82.0318C116.867 82.0318 117.374 82.1462 117.818 82.3749C118.266 82.6002 118.63 82.9151 118.912 83.3195C119.194 83.7238 119.376 84.1895 119.459 84.7165H118.246C118.133 84.2591 117.914 83.8796 117.589 83.578C117.265 83.2764 116.834 83.1256 116.297 83.1256C115.508 83.1256 114.887 83.4686 114.432 84.1547C113.982 84.8408 113.755 85.8036 113.751 87.0432H113.831C114.017 86.7615 114.237 86.5212 114.492 86.3223C114.751 86.1201 115.036 85.9643 115.347 85.855C115.659 85.7456 115.989 85.6909 116.337 85.6909C116.92 85.6909 117.454 85.8367 117.937 86.1284C118.421 86.4168 118.809 86.8161 119.101 87.3266C119.392 87.8337 119.538 88.4153 119.538 89.0716C119.538 89.7013 119.397 90.278 119.116 90.8017C118.834 91.3221 118.438 91.7364 117.928 92.0446C117.42 92.3495 116.824 92.4987 116.138 92.492ZM116.138 91.3983C116.555 91.3983 116.93 91.2939 117.261 91.0851C117.596 90.8763 117.86 90.5962 118.052 90.2449C118.247 89.8936 118.345 89.5025 118.345 89.0716C118.345 88.6507 118.251 88.2679 118.062 87.9232C117.876 87.5751 117.619 87.2984 117.291 87.0929C116.966 86.8874 116.595 86.7847 116.178 86.7847C115.863 86.7847 115.569 86.8476 115.298 86.9736C115.026 87.0962 114.787 87.2652 114.582 87.4807C114.379 87.6961 114.22 87.943 114.104 88.2215C113.988 88.4965 113.93 88.7866 113.93 89.0915C113.93 89.4958 114.025 89.8737 114.214 90.225C114.406 90.5763 114.668 90.8597 114.999 91.0751C115.334 91.2906 115.714 91.3983 116.138 91.3983ZM124.317 80.5368L125.381 80.8168C125.12 81.4982 124.812 82.1655 124.457 82.8188C124.112 83.4628 123.734 84.0648 123.323 84.6248C122.913 85.1755 122.488 85.6608 122.049 86.0808C121.984 86.0248 121.895 85.9548 121.783 85.8708C121.681 85.7775 121.569 85.6888 121.447 85.6048C121.335 85.5208 121.233 85.4555 121.139 85.4088C121.587 85.0168 122.007 84.5688 122.399 84.0648C122.801 83.5515 123.165 82.9962 123.491 82.3988C123.818 81.7922 124.093 81.1715 124.317 80.5368ZM124.107 82.2868H133.137V83.2948H123.589L124.107 82.2868ZM123.421 85.4508H132.815V86.4448H124.471V89.7488H123.421V85.4508ZM121.111 89.2308H133.795V90.2388H121.111V89.2308ZM127.607 82.8188H128.685V93.4728H127.607V82.8188ZM138.934 92.492C138.277 92.492 137.693 92.3794 137.179 92.154C136.668 91.9286 136.262 91.6154 135.961 91.2143C135.662 90.81 135.5 90.341 135.474 89.8074H136.726C136.753 90.1355 136.866 90.4189 137.064 90.6575C137.263 90.8929 137.523 91.0751 137.845 91.2044C138.166 91.3337 138.523 91.3983 138.914 91.3983C139.351 91.3983 139.739 91.3221 140.077 91.1696C140.415 91.0171 140.68 90.805 140.873 90.5332C141.065 90.2615 141.161 89.9466 141.161 89.5886C141.161 89.2141 141.068 88.8843 140.883 88.5993C140.697 88.3109 140.425 88.0856 140.067 87.9232C139.709 87.7608 139.272 87.6795 138.755 87.6795H137.939V86.5858H138.755C139.159 86.5858 139.514 86.5129 139.819 86.367C140.127 86.2212 140.367 86.0157 140.54 85.7506C140.715 85.4854 140.803 85.1739 140.803 84.8159C140.803 84.4712 140.727 84.1713 140.574 83.9161C140.422 83.6608 140.206 83.462 139.928 83.3195C139.653 83.1769 139.328 83.1057 138.954 83.1057C138.602 83.1057 138.271 83.1703 137.959 83.2996C137.651 83.4255 137.399 83.6095 137.204 83.8514C137.008 84.0901 136.902 84.3784 136.885 84.7165H135.692C135.712 84.1829 135.873 83.7155 136.175 83.3145C136.476 82.9101 136.871 82.5953 137.358 82.3699C137.848 82.1445 138.387 82.0318 138.974 82.0318C139.603 82.0318 140.143 82.1594 140.594 82.4146C141.045 82.6665 141.391 82.9996 141.633 83.4139C141.875 83.8282 141.996 84.2757 141.996 84.7563C141.996 85.3296 141.845 85.8185 141.544 86.2229C141.246 86.6272 140.84 86.9073 140.326 87.0631V87.1426C140.969 87.2487 141.471 87.5221 141.832 87.9629C142.193 88.4004 142.374 88.9423 142.374 89.5886C142.374 90.1421 142.223 90.6393 141.922 91.0801C141.623 91.5176 141.216 91.8623 140.699 92.1142C140.182 92.3661 139.593 92.492 138.934 92.492ZM146.909 81.3348H154.203V82.3568H146.909V81.3348ZM146.909 84.7088H154.273V85.7028H146.909V84.7088ZM146.797 88.0828H154.203V89.1048H146.797V88.0828ZM146.251 81.3348H147.315V85.6468C147.315 86.2535 147.283 86.9022 147.217 87.5928C147.161 88.2835 147.04 88.9835 146.853 89.6928C146.667 90.3928 146.387 91.0695 146.013 91.7228C145.649 92.3762 145.164 92.9642 144.557 93.4868C144.511 93.4122 144.436 93.3235 144.333 93.2208C144.24 93.1182 144.142 93.0202 144.039 92.9268C143.937 92.8428 143.843 92.7775 143.759 92.7308C144.329 92.2268 144.777 91.6855 145.103 91.1068C145.439 90.5188 145.687 89.9122 145.845 89.2868C146.013 88.6615 146.121 88.0408 146.167 87.4248C146.223 86.7995 146.251 86.2068 146.251 85.6468V81.3348ZM153.741 81.3348H154.847V91.9188C154.847 92.2922 154.791 92.5768 154.679 92.7728C154.567 92.9688 154.381 93.1135 154.119 93.2068C153.849 93.3002 153.471 93.3562 152.985 93.3748C152.5 93.4028 151.884 93.4168 151.137 93.4168C151.119 93.3048 151.081 93.1835 151.025 93.0528C150.979 92.9222 150.923 92.7868 150.857 92.6468C150.801 92.5162 150.745 92.4042 150.689 92.3108C151.081 92.3202 151.455 92.3295 151.809 92.3388C152.173 92.3388 152.486 92.3388 152.747 92.3388C153.018 92.3295 153.205 92.3248 153.307 92.3248C153.475 92.3155 153.587 92.2828 153.643 92.2268C153.709 92.1615 153.741 92.0542 153.741 91.9048V81.3348ZM161.848 92.492C161.192 92.492 160.607 92.3794 160.093 92.154C159.582 91.9286 159.176 91.6154 158.875 91.2143C158.576 90.81 158.414 90.341 158.388 89.8074H159.64C159.667 90.1355 159.78 90.4189 159.978 90.6575C160.177 90.8929 160.438 91.0751 160.759 91.2044C161.081 91.3337 161.437 91.3983 161.828 91.3983C162.265 91.3983 162.653 91.3221 162.991 91.1696C163.329 91.0171 163.594 90.805 163.787 90.5332C163.979 90.2615 164.075 89.9466 164.075 89.5886C164.075 89.2141 163.982 88.8843 163.797 88.5993C163.611 88.3109 163.339 88.0856 162.981 87.9232C162.623 87.7608 162.186 87.6795 161.669 87.6795H160.853V86.5858H161.669C162.073 86.5858 162.428 86.5129 162.733 86.367C163.041 86.2212 163.281 86.0157 163.454 85.7506C163.629 85.4854 163.717 85.1739 163.717 84.8159C163.717 84.4712 163.641 84.1713 163.488 83.9161C163.336 83.6608 163.121 83.462 162.842 83.3195C162.567 83.1769 162.242 83.1057 161.868 83.1057C161.516 83.1057 161.185 83.1703 160.873 83.2996C160.565 83.4255 160.313 83.6095 160.118 83.8514C159.922 84.0901 159.816 84.3784 159.8 84.7165H158.606C158.626 84.1829 158.787 83.7155 159.089 83.3145C159.39 82.9101 159.785 82.5953 160.272 82.3699C160.762 82.1445 161.301 82.0318 161.888 82.0318C162.517 82.0318 163.058 82.1594 163.508 82.4146C163.959 82.6665 164.305 82.9996 164.547 83.4139C164.789 83.8282 164.91 84.2757 164.91 84.7563C164.91 85.3296 164.759 85.8185 164.458 86.2229C164.16 86.6272 163.754 86.9073 163.24 87.0631V87.1426C163.883 87.2487 164.385 87.5221 164.746 87.9629C165.108 88.4004 165.288 88.9423 165.288 89.5886C165.288 90.1421 165.137 90.6393 164.836 91.0801C164.537 91.5176 164.13 91.8623 163.613 92.1142C163.096 92.3661 162.507 92.492 161.848 92.492ZM170.901 82.171V92.3528H169.668V83.4636H169.608L167.123 85.1142V83.8614L169.668 82.171H170.901ZM175.239 81.5448H184.423V93.2488H183.303V82.5948H176.317V93.3188H175.239V81.5448ZM175.967 86.3888H183.779V87.4248H175.967V86.3888ZM175.939 91.3588H183.793V92.4088H175.939V91.3588ZM191.767 92.3528V91.458L195.128 87.779C195.522 87.3481 195.847 86.9736 196.102 86.6554C196.357 86.3339 196.546 86.0323 196.669 85.7506C196.795 85.4655 196.858 85.1672 196.858 84.8557C196.858 84.4977 196.772 84.1878 196.599 83.926C196.43 83.6642 196.198 83.462 195.903 83.3195C195.608 83.1769 195.277 83.1057 194.909 83.1057C194.518 83.1057 194.176 83.1869 193.885 83.3493C193.596 83.5084 193.373 83.7321 193.214 84.0205C193.058 84.3088 192.98 84.6469 192.98 85.0347H191.807C191.807 84.4381 191.944 83.9144 192.219 83.4636C192.494 83.0129 192.869 82.6616 193.343 82.4097C193.82 82.1578 194.355 82.0318 194.949 82.0318C195.545 82.0318 196.074 82.1578 196.535 82.4097C196.995 82.6616 197.357 83.0013 197.618 83.4288C197.88 83.8564 198.011 84.332 198.011 84.8557C198.011 85.2302 197.943 85.5965 197.807 85.9544C197.675 86.309 197.443 86.7051 197.111 87.1426C196.783 87.5768 196.327 88.1071 195.744 88.7335L193.457 91.1795V91.2591H198.19V92.3528H191.767ZM203.684 92.492C203.027 92.492 202.443 92.3794 201.929 92.154C201.418 91.9286 201.012 91.6154 200.711 91.2143C200.412 90.81 200.25 90.341 200.224 89.8074H201.476C201.503 90.1355 201.616 90.4189 201.814 90.6575C202.013 90.8929 202.273 91.0751 202.595 91.2044C202.916 91.3337 203.273 91.3983 203.664 91.3983C204.101 91.3983 204.489 91.3221 204.827 91.1696C205.165 91.0171 205.43 90.805 205.623 90.5332C205.815 90.2615 205.911 89.9466 205.911 89.5886C205.911 89.2141 205.818 88.8843 205.633 88.5993C205.447 88.3109 205.175 88.0856 204.817 87.9232C204.459 87.7608 204.022 87.6795 203.505 87.6795H202.689V86.5858H203.505C203.909 86.5858 204.264 86.5129 204.569 86.367C204.877 86.2212 205.117 86.0157 205.29 85.7506C205.465 85.4854 205.553 85.1739 205.553 84.8159C205.553 84.4712 205.477 84.1713 205.324 83.9161C205.172 83.6608 204.956 83.462 204.678 83.3195C204.403 83.1769 204.078 83.1057 203.704 83.1057C203.352 83.1057 203.021 83.1703 202.709 83.2996C202.401 83.4255 202.149 83.6095 201.954 83.8514C201.758 84.0901 201.652 84.3784 201.635 84.7165H200.442C200.462 84.1829 200.623 83.7155 200.925 83.3145C201.226 82.9101 201.621 82.5953 202.108 82.3699C202.598 82.1445 203.137 82.0318 203.724 82.0318C204.353 82.0318 204.893 82.1594 205.344 82.4146C205.795 82.6665 206.141 82.9996 206.383 83.4139C206.625 83.8282 206.746 84.2757 206.746 84.7563C206.746 85.3296 206.595 85.8185 206.294 86.2229C205.996 86.6272 205.59 86.9073 205.076 87.0631V87.1426C205.719 87.2487 206.221 87.5221 206.582 87.9629C206.943 88.4004 207.124 88.9423 207.124 89.5886C207.124 90.1421 206.973 90.6393 206.672 91.0801C206.373 91.5176 205.966 91.8623 205.449 92.1142C204.932 92.3661 204.343 92.492 203.684 92.492ZM210.032 91.0503C209.787 91.0503 209.577 90.9625 209.401 90.7868C209.225 90.6111 209.138 90.4007 209.138 90.1554C209.138 89.9101 209.225 89.6997 209.401 89.524C209.577 89.3483 209.787 89.2605 210.032 89.2605C210.278 89.2605 210.488 89.3483 210.664 89.524C210.84 89.6997 210.927 89.9101 210.927 90.1554C210.927 90.3178 210.886 90.467 210.803 90.6028C210.724 90.7387 210.616 90.8481 210.48 90.931C210.347 91.0105 210.198 91.0503 210.032 91.0503ZM210.032 85.8997C209.787 85.8997 209.577 85.8119 209.401 85.6362C209.225 85.4606 209.138 85.2501 209.138 85.0048C209.138 84.7596 209.225 84.5491 209.401 84.3734C209.577 84.1978 209.787 84.1099 210.032 84.1099C210.278 84.1099 210.488 84.1978 210.664 84.3734C210.84 84.5491 210.927 84.7596 210.927 85.0048C210.927 85.1672 210.886 85.3164 210.803 85.4523C210.724 85.5882 210.616 85.6975 210.48 85.7804C210.347 85.8599 210.198 85.8997 210.032 85.8997ZM216.195 92.492C215.611 92.492 215.086 92.376 214.619 92.144C214.151 91.912 213.777 91.5938 213.495 91.1895C213.213 90.7851 213.059 90.3244 213.033 89.8074H214.226C214.272 90.2681 214.481 90.6492 214.852 90.9509C215.227 91.2492 215.674 91.3983 216.195 91.3983C216.612 91.3983 216.984 91.3005 217.308 91.105C217.637 90.9094 217.893 90.641 218.079 90.2996C218.268 89.9549 218.362 89.5654 218.362 89.1313C218.362 88.6871 218.265 88.2911 218.069 87.943C217.877 87.5917 217.612 87.315 217.274 87.1128C216.936 86.9106 216.549 86.8079 216.115 86.8045C215.804 86.8012 215.484 86.8493 215.156 86.9487C214.828 87.0448 214.557 87.1691 214.345 87.3216L213.192 87.1824L213.808 82.171H219.098V83.2648H214.842L214.485 86.2676H214.544C214.753 86.1019 215.015 85.9643 215.33 85.855C215.645 85.7456 215.973 85.6909 216.314 85.6909C216.937 85.6909 217.492 85.8401 217.98 86.1384C218.47 86.4333 218.855 86.8377 219.133 87.3514C219.415 87.8652 219.556 88.4518 219.556 89.1114C219.556 89.761 219.41 90.341 219.118 90.8514C218.83 91.3585 218.432 91.7596 217.925 92.0545C217.418 92.3462 216.841 92.492 216.195 92.492ZM224.772 82.0318C225.19 82.0351 225.607 82.1147 226.025 82.2705C226.442 82.4262 226.824 82.6848 227.168 83.046C227.513 83.404 227.79 83.8929 227.999 84.5126C228.207 85.1324 228.312 85.9097 228.312 86.8443C228.312 87.7492 228.226 88.5529 228.053 89.2555C227.884 89.9549 227.639 90.5448 227.317 91.0254C226.999 91.506 226.611 91.8706 226.154 92.1192C225.7 92.3678 225.186 92.492 224.613 92.492C224.043 92.492 223.534 92.3794 223.087 92.154C222.642 91.9253 222.278 91.6088 221.993 91.2044C221.711 90.7967 221.531 90.3244 221.451 89.7875H222.664C222.773 90.2548 222.99 90.641 223.315 90.9459C223.643 91.2475 224.076 91.3983 224.613 91.3983C225.398 91.3983 226.018 91.0553 226.472 90.3692C226.93 89.6831 227.158 88.7136 227.158 87.4608H227.079C226.893 87.7392 226.673 87.9795 226.418 88.1817C226.162 88.3839 225.879 88.5396 225.567 88.649C225.256 88.7584 224.924 88.8131 224.573 88.8131C223.99 88.8131 223.455 88.6689 222.967 88.3805C222.483 88.0889 222.096 87.6895 221.804 87.1824C221.516 86.672 221.371 86.0886 221.371 85.4324C221.371 84.8093 221.511 84.2392 221.789 83.7222C222.071 83.2018 222.465 82.7875 222.972 82.4793C223.483 82.171 224.083 82.0219 224.772 82.0318ZM224.772 83.1256C224.354 83.1256 223.978 83.23 223.643 83.4388C223.312 83.6443 223.049 83.9227 222.853 84.274C222.661 84.622 222.565 85.0081 222.565 85.4324C222.565 85.8566 222.657 86.2428 222.843 86.5908C223.032 86.9355 223.289 87.2106 223.614 87.4161C223.942 87.6182 224.315 87.7193 224.732 87.7193C225.047 87.7193 225.34 87.658 225.612 87.5354C225.884 87.4094 226.121 87.2387 226.323 87.0233C226.529 86.8045 226.689 86.5576 226.805 86.2825C226.921 86.0041 226.979 85.7141 226.979 85.4125C226.979 85.0148 226.883 84.6419 226.691 84.2939C226.502 83.9459 226.24 83.6642 225.906 83.4487C225.574 83.2333 225.196 83.1256 224.772 83.1256ZM234.642 87.2619C234.642 86.0091 234.804 84.8573 235.129 83.8067C235.457 82.7527 235.925 81.7832 236.531 80.8983H237.565C237.326 81.2264 237.103 81.6308 236.894 82.1114C236.688 82.5886 236.508 83.114 236.352 83.6874C236.196 84.2574 236.074 84.8474 235.984 85.4572C235.898 86.0671 235.855 86.6687 235.855 87.2619C235.855 88.0508 235.931 88.8512 236.084 89.6632C236.236 90.4752 236.442 91.2293 236.7 91.9253C236.959 92.6213 237.247 93.1881 237.565 93.6256H236.531C235.925 92.7406 235.457 91.7728 235.129 90.7222C234.804 89.6682 234.642 88.5148 234.642 87.2619ZM246.137 82.171H247.37V88.9125C247.37 89.6085 247.206 90.23 246.878 90.7768C246.553 91.3204 246.094 91.7496 245.501 92.0645C244.908 92.376 244.212 92.5318 243.413 92.5318C242.614 92.5318 241.918 92.376 241.325 92.0645C240.732 91.7496 240.271 91.3204 239.943 90.7768C239.618 90.23 239.456 89.6085 239.456 88.9125V82.171H240.689V88.8131C240.689 89.3102 240.798 89.7527 241.017 90.1405C241.235 90.525 241.547 90.8282 241.951 91.0503C242.359 91.269 242.846 91.3784 243.413 91.3784C243.98 91.3784 244.467 91.269 244.875 91.0503C245.282 90.8282 245.594 90.525 245.809 90.1405C246.028 89.7527 246.137 89.3102 246.137 88.8131V82.171ZM249.276 83.2648V82.171H256.912V83.2648H253.71V92.3528H252.477V83.2648H249.276ZM266.584 85.3528H265.351C265.278 84.9982 265.151 84.6867 264.969 84.4182C264.79 84.1497 264.571 83.9243 264.312 83.742C264.057 83.5564 263.774 83.4172 263.462 83.3244C263.151 83.2316 262.826 83.1852 262.488 83.1852C261.871 83.1852 261.313 83.341 260.812 83.6526C260.315 83.9641 259.919 84.4232 259.624 85.0297C259.332 85.6362 259.187 86.3803 259.187 87.2619C259.187 88.1436 259.332 88.8876 259.624 89.4942C259.919 90.1007 260.315 90.5598 260.812 90.8713C261.313 91.1829 261.871 91.3386 262.488 91.3386C262.826 91.3386 263.151 91.2922 263.462 91.1994C263.774 91.1066 264.057 90.9691 264.312 90.7868C264.571 90.6012 264.79 90.3742 264.969 90.1057C265.151 89.8339 265.278 89.5224 265.351 89.171H266.584C266.492 89.6914 266.322 90.1571 266.077 90.568C265.832 90.979 265.527 91.3287 265.162 91.617C264.798 91.9021 264.389 92.1192 263.934 92.2683C263.484 92.4175 263.001 92.492 262.488 92.492C261.619 92.492 260.847 92.2799 260.171 91.8557C259.495 91.4314 258.963 90.8282 258.575 90.046C258.187 89.2638 257.993 88.3358 257.993 87.2619C257.993 86.1881 258.187 85.26 258.575 84.4778C258.963 83.6956 259.495 83.0924 260.171 82.6682C260.847 82.2439 261.619 82.0318 262.488 82.0318C263.001 82.0318 263.484 82.1064 263.934 82.2555C264.389 82.4047 264.798 82.6234 265.162 82.9118C265.527 83.1968 265.832 83.5448 266.077 83.9558C266.322 84.3635 266.492 84.8292 266.584 85.3528ZM271.401 90.5631V84.0006H272.514V90.5631H271.401ZM268.676 87.8386V86.725H275.239V87.8386H268.676ZM280.888 92.492C280.205 92.492 279.602 92.3711 279.078 92.1291C278.558 91.8839 278.152 91.5474 277.86 91.1199C277.568 90.689 277.424 90.1985 277.427 89.6483C277.424 89.2174 277.509 88.8197 277.681 88.4551C277.853 88.0872 278.089 87.7806 278.387 87.5354C278.688 87.2868 279.025 87.1294 279.396 87.0631V87.0034C278.909 86.8775 278.521 86.604 278.233 86.1831C277.944 85.7589 277.802 85.2766 277.805 84.7364C277.802 84.2193 277.933 83.757 278.198 83.3493C278.463 82.9416 278.828 82.6201 279.292 82.3848C279.759 82.1495 280.291 82.0318 280.888 82.0318C281.478 82.0318 282.005 82.1495 282.469 82.3848C282.933 82.6201 283.297 82.9416 283.562 83.3493C283.831 83.757 283.967 84.2193 283.97 84.7364C283.967 85.2766 283.819 85.7589 283.527 86.1831C283.239 86.604 282.856 86.8775 282.379 87.0034V87.0631C282.747 87.1294 283.078 87.2868 283.373 87.5354C283.668 87.7806 283.904 88.0872 284.079 88.4551C284.255 88.8197 284.344 89.2174 284.348 89.6483C284.344 90.1985 284.195 90.689 283.9 91.1199C283.609 91.5474 283.203 91.8839 282.682 92.1291C282.165 92.3711 281.567 92.492 280.888 92.492ZM280.888 91.3983C281.348 91.3983 281.746 91.3237 282.081 91.1746C282.416 91.0254 282.674 90.815 282.856 90.5432C283.039 90.2714 283.131 89.9532 283.135 89.5886C283.131 89.2042 283.032 88.8644 282.836 88.5695C282.641 88.2745 282.374 88.0425 282.036 87.8734C281.701 87.7044 281.318 87.6199 280.888 87.6199C280.453 87.6199 280.066 87.7044 279.724 87.8734C279.386 88.0425 279.119 88.2745 278.924 88.5695C278.732 88.8644 278.637 89.2042 278.64 89.5886C278.637 89.9532 278.725 90.2714 278.904 90.5432C279.086 90.815 279.346 91.0254 279.684 91.1746C280.023 91.3237 280.424 91.3983 280.888 91.3983ZM280.888 86.5659C281.252 86.5659 281.575 86.493 281.857 86.3472C282.142 86.2013 282.366 85.9975 282.528 85.7357C282.691 85.4738 282.773 85.1672 282.777 84.8159C282.773 84.4712 282.692 84.1713 282.533 83.9161C282.374 83.6575 282.154 83.4587 281.872 83.3195C281.59 83.1769 281.262 83.1057 280.888 83.1057C280.506 83.1057 280.173 83.1769 279.888 83.3195C279.603 83.4587 279.383 83.6575 279.227 83.9161C279.071 84.1713 278.995 84.4712 278.998 84.8159C278.995 85.1672 279.073 85.4738 279.232 85.7357C279.394 85.9975 279.618 86.2013 279.903 86.3472C280.188 86.493 280.516 86.5659 280.888 86.5659ZM288.779 87.2619C288.779 88.5148 288.615 89.6682 288.287 90.7222C287.962 91.7728 287.496 92.7406 286.89 93.6256H285.855C286.094 93.2974 286.316 92.8931 286.522 92.4125C286.73 91.9352 286.913 91.4116 287.069 90.8415C287.224 90.2681 287.345 89.6765 287.431 89.0666C287.521 88.4535 287.566 87.8519 287.566 87.2619C287.566 86.4731 287.489 85.6727 287.337 84.8607C287.185 84.0486 286.979 83.2946 286.72 82.5986C286.462 81.9026 286.174 81.3358 285.855 80.8983H286.89C287.496 81.7832 287.962 82.7527 288.287 83.8067C288.615 84.8573 288.779 86.0091 288.779 87.2619Z" fill="#2A2A2A"/>
<path d="M0 12C0 5.37258 5.37258 0 12 0H108.313C111.082 0 113.014 2.74593 112.078 5.35209L102.021 33.3521C101.451 34.9406 99.9445 36 98.2566 36H0V12Z" fill="url(#paint0_linear_12656_753)"/>
<path d="M27.7318 15.36H32.1158V13.36C30.9958 13.456 29.7958 13.504 28.5318 13.504L28.0198 12C31.4758 12 34.3878 11.616 36.7718 10.864L37.6038 12.272C36.5158 12.656 35.2518 12.96 33.8118 13.168V15.36H38.2278V16.96H33.8118V18.864H37.2998V25.664H35.6518V24.912H30.4038V25.664H28.7558V18.864H32.1158V16.96H27.7318V15.36ZM30.4038 23.344H35.6518V20.432H30.4038V23.344ZM25.1078 10.992C26.1638 11.68 27.0758 12.384 27.8278 13.088L26.6918 14.208C26.0518 13.552 25.1558 12.832 23.9718 12.064L25.1078 10.992ZM24.7398 14.8C25.8278 15.584 26.7558 16.368 27.4918 17.152L26.3398 18.304C25.6838 17.568 24.7558 16.784 23.5718 15.936L24.7398 14.8ZM26.1638 19.12L27.6838 19.728C27.0278 21.76 26.3078 23.68 25.5078 25.472L23.8278 24.736C24.7238 22.912 25.5078 21.04 26.1638 19.12ZM40.2278 11.808H46.2438V13.392H40.2278V11.808ZM39.6358 16.112H46.8198V17.744H43.2358C42.7078 19.824 42.2438 21.36 41.8438 22.384C42.8518 22.16 43.8438 21.856 44.8198 21.504C44.4678 20.736 44.1158 20.032 43.7638 19.36L45.1558 18.688C45.8598 20 46.5638 21.456 47.2358 23.056C48.3078 21.2 48.8518 18.736 48.8838 15.696V15.568H46.9158V13.968H48.8838V10.896H50.5478V13.968H53.9878C53.9878 19.248 53.9078 22.512 53.7638 23.76C53.5718 24.944 52.7398 25.536 51.2678 25.536C51.0118 25.536 50.5798 25.504 49.9398 25.456L49.5558 24C50.1158 24.032 50.5958 24.064 51.0118 24.064C51.6838 24.064 52.0678 23.712 52.1958 23.008C52.2918 22.288 52.3398 19.808 52.3718 15.568H50.5478V15.696C50.4998 20.288 49.3958 23.648 47.2198 25.776L45.9558 24.672C46.4198 24.224 46.8198 23.712 47.1718 23.152L45.7958 23.856C45.6678 23.504 45.5398 23.184 45.4118 22.88C43.7318 23.456 41.9238 23.904 40.0038 24.256L39.6198 22.688C39.7798 22.64 39.8918 22.592 39.9558 22.544C40.3718 21.936 40.9318 20.336 41.6198 17.744H39.6358V16.112ZM60.9638 11.92V23.984H59.3638V23.024H57.6198V24.368H55.9878V11.92H60.9638ZM57.6198 21.472H59.3638V18.16H57.6198V21.472ZM57.6198 16.608H59.3638V13.44H57.6198V16.608ZM63.4118 16.768C64.3718 18.272 65.1238 19.568 65.6358 20.672L64.2438 21.632C63.6998 20.448 62.9638 19.104 62.0358 17.632L63.4118 16.768ZM66.8518 25.504H63.9878L63.6198 23.888C64.5478 23.952 65.4278 23.984 66.2598 23.984C66.6118 23.984 66.8038 23.792 66.8038 23.408V15.232H61.5558V13.616H66.8038V10.992H68.4998V13.616H70.2278V15.232H68.4998V23.824C68.4998 24.944 67.9398 25.504 66.8518 25.504ZM75.5878 15.072H82.0838V22.912H75.5878V15.072ZM80.5318 21.44V19.712H77.1558V21.44H80.5318ZM77.1558 18.272H80.5318V16.544H77.1558V18.272ZM83.6358 25.536H82.3558L81.9078 23.968L83.2998 24.016C83.6998 24.016 83.9078 23.728 83.9078 23.168V13.056H77.9558V11.52H85.5398V23.632C85.5398 24.896 84.8998 25.536 83.6358 25.536ZM72.2278 13.52H73.8598V25.68H72.2278V13.52ZM75.0598 10.688C75.7958 11.552 76.4358 12.496 76.9958 13.536L75.4918 14.32C74.8998 13.2 74.2438 12.224 73.5398 11.376L75.0598 10.688Z" fill="white"/>
<defs>
<linearGradient id="paint0_linear_12656_753" x1="-2.76329" y1="13.8308" x2="108.737" y2="13.8308" gradientUnits="userSpaceOnUse">
<stop stop-color="#005AFF"/>
<stop offset="1" stop-color="#6A9EFF"/>
</linearGradient>
</defs>
</svg>
