<svg width="335" height="116" viewBox="0 0 335 116" fill="none" xmlns="http://www.w3.org/2000/svg">
<rect y="7.05225" width="335" height="108.511" rx="12" fill="white"/>
<path d="M22.8011 60.7165C22.7415 60.2127 22.4995 59.8216 22.0753 59.5432C21.651 59.2648 21.1307 59.1256 20.5142 59.1256C20.0634 59.1256 19.669 59.1985 19.331 59.3443C18.9962 59.4902 18.7344 59.6907 18.5455 59.9459C18.3598 60.2011 18.267 60.4911 18.267 60.8159C18.267 61.0877 18.3317 61.3214 18.4609 61.5169C18.5935 61.7091 18.7625 61.8699 18.968 61.9992C19.1735 62.1251 19.389 62.2295 19.6143 62.3124C19.8397 62.3919 20.0469 62.4565 20.2358 62.5063L21.2699 62.7847C21.535 62.8543 21.83 62.9504 22.1548 63.073C22.483 63.1956 22.7962 63.363 23.0945 63.5751C23.3961 63.784 23.6446 64.0524 23.8402 64.3805C24.0357 64.7087 24.1335 65.1114 24.1335 65.5886C24.1335 66.1388 23.9893 66.636 23.701 67.0801C23.416 67.5242 22.9983 67.8772 22.4482 68.1391C21.9013 68.4009 21.2367 68.5318 20.4545 68.5318C19.7254 68.5318 19.094 68.4142 18.5604 68.1788C18.0301 67.9435 17.6125 67.6154 17.3075 67.1945C17.0059 66.7735 16.8352 66.2847 16.7955 65.7278H18.0682C18.1013 66.1123 18.2306 66.4305 18.456 66.6824C18.6847 66.931 18.973 67.1166 19.321 67.2392C19.6723 67.3585 20.0502 67.4182 20.4545 67.4182C20.9252 67.4182 21.3478 67.342 21.7223 67.1895C22.0968 67.0337 22.3935 66.8183 22.6122 66.5432C22.831 66.2648 22.9403 65.94 22.9403 65.5688C22.9403 65.2307 22.8459 64.9556 22.657 64.7435C22.468 64.5313 22.2195 64.359 21.9112 64.2264C21.603 64.0938 21.2699 63.9778 20.9119 63.8784L19.6591 63.5205C18.8636 63.2918 18.2339 62.9653 17.7699 62.5411C17.3059 62.1168 17.0739 61.5617 17.0739 60.8756C17.0739 60.3055 17.228 59.8083 17.5362 59.3841C17.8478 58.9565 18.2654 58.6251 18.7891 58.3898C19.3161 58.1511 19.9044 58.0318 20.554 58.0318C21.2102 58.0318 21.7936 58.1495 22.304 58.3848C22.8144 58.6168 23.2188 58.935 23.517 59.3393C23.8187 59.7437 23.9777 60.2027 23.9943 60.7165H22.8011ZM29.3226 60.7165V61.7108H25.3652V60.7165H29.3226ZM26.5186 58.8869H27.6919V66.1653C27.6919 66.4968 27.74 66.7454 27.8361 66.9111C27.9355 67.0735 28.0615 67.1829 28.214 67.2392C28.3697 67.2922 28.5338 67.3188 28.7061 67.3188C28.8354 67.3188 28.9415 67.3121 29.0243 67.2989C29.1072 67.2823 29.1735 67.269 29.2232 67.2591L29.4618 68.3131C29.3823 68.3429 29.2712 68.3727 29.1287 68.4026C28.9862 68.4357 28.8056 68.4523 28.5868 68.4523C28.2554 68.4523 27.9306 68.381 27.6124 68.2385C27.2975 68.096 27.0357 67.8789 26.8269 67.5872C26.6214 67.2956 26.5186 66.9277 26.5186 66.4835V58.8869ZM33.3347 68.5318C32.8508 68.5318 32.4116 68.4407 32.0172 68.2584C31.6228 68.0728 31.3096 67.806 31.0776 67.458C30.8456 67.1066 30.7296 66.6824 30.7296 66.1852C30.7296 65.7477 30.8158 65.3931 30.9881 65.1213C31.1605 64.8462 31.3908 64.6308 31.6792 64.475C31.9675 64.3192 32.2857 64.2032 32.6337 64.127C32.985 64.0474 33.338 63.9845 33.6926 63.9381C34.1567 63.8784 34.5328 63.8337 34.8212 63.8038C35.1129 63.7707 35.325 63.716 35.4576 63.6398C35.5935 63.5635 35.6614 63.431 35.6614 63.242V63.2023C35.6614 62.7117 35.5272 62.3306 35.2587 62.0588C34.9935 61.787 34.5909 61.6511 34.0506 61.6511C33.4905 61.6511 33.0513 61.7738 32.7331 62.019C32.415 62.2643 32.1912 62.5261 32.062 62.8045L30.9483 62.4068C31.1472 61.9428 31.4123 61.5815 31.7438 61.323C32.0785 61.0612 32.4431 60.8789 32.8375 60.7761C33.2353 60.6701 33.6264 60.617 34.0108 60.617C34.2561 60.617 34.5378 60.6469 34.856 60.7065C35.1775 60.7629 35.4874 60.8805 35.7857 61.0595C36.0873 61.2385 36.3375 61.5086 36.5364 61.8699C36.7353 62.2312 36.8347 62.7151 36.8347 63.3216V68.3528H35.6614V67.3188H35.6017C35.5222 67.4845 35.3896 67.6618 35.204 67.8507C35.0184 68.0396 34.7715 68.2004 34.4632 68.333C34.155 68.4655 33.7788 68.5318 33.3347 68.5318ZM33.5137 67.4778C33.9777 67.4778 34.3688 67.3867 34.687 67.2044C35.0085 67.0221 35.2504 66.7868 35.4128 66.4984C35.5785 66.2101 35.6614 65.9068 35.6614 65.5886V64.5148C35.6117 64.5744 35.5023 64.6291 35.3333 64.6788C35.1676 64.7252 34.9753 64.7667 34.7566 64.8031C34.5411 64.8363 34.3307 64.8661 34.1252 64.8926C33.923 64.9158 33.7589 64.9357 33.633 64.9523C33.3281 64.992 33.043 65.0567 32.7779 65.1462C32.516 65.2323 32.3039 65.3633 32.1415 65.5389C31.9824 65.7113 31.9029 65.9466 31.9029 66.2449C31.9029 66.6526 32.0537 66.9608 32.3553 67.1696C32.6602 67.3751 33.0463 67.4778 33.5137 67.4778ZM38.9762 68.3528V60.7165H40.1097V61.8699H40.1893C40.3285 61.492 40.5804 61.1855 40.945 60.9501C41.3095 60.7148 41.7205 60.5972 42.1779 60.5972C42.2641 60.5972 42.3718 60.5988 42.5011 60.6021C42.6303 60.6054 42.7281 60.6104 42.7944 60.617V61.8102C42.7546 61.8003 42.6635 61.7854 42.521 61.7655C42.3817 61.7423 42.2343 61.7307 42.0785 61.7307C41.7073 61.7307 41.3758 61.8086 41.0842 61.9643C40.7958 62.1168 40.5671 62.3289 40.3981 62.6007C40.2324 62.8692 40.1495 63.1758 40.1495 63.5205V68.3528H38.9762ZM47.9847 60.7165V61.7108H44.0273V60.7165H47.9847ZM45.1808 58.8869H46.354V66.1653C46.354 66.4968 46.4021 66.7454 46.4982 66.9111C46.5977 67.0735 46.7236 67.1829 46.8761 67.2392C47.0318 67.2922 47.1959 67.3188 47.3683 67.3188C47.4975 67.3188 47.6036 67.3121 47.6864 67.2989C47.7693 67.2823 47.8356 67.269 47.8853 67.2591L48.1239 68.3131C48.0444 68.3429 47.9334 68.3727 47.7908 68.4026C47.6483 68.4357 47.4677 68.4523 47.2489 68.4523C46.9175 68.4523 46.5927 68.381 46.2745 68.2385C45.9596 68.096 45.6978 67.8789 45.489 67.5872C45.2835 67.2956 45.1808 66.9277 45.1808 66.4835V58.8869ZM53.2894 59.2648V58.171H60.9258V59.2648H57.7241V68.3528H56.4911V59.2648H53.2894ZM62.6696 68.3528V60.7165H63.8429V68.3528H62.6696ZM63.2662 59.4438C63.0375 59.4438 62.8403 59.3659 62.6745 59.2101C62.5121 59.0543 62.4309 58.867 62.4309 58.6483C62.4309 58.4295 62.5121 58.2423 62.6745 58.0865C62.8403 57.9307 63.0375 57.8528 63.2662 57.8528C63.4949 57.8528 63.6904 57.9307 63.8528 58.0865C64.0185 58.2423 64.1014 58.4295 64.1014 58.6483C64.1014 58.867 64.0185 59.0543 63.8528 59.2101C63.6904 59.3659 63.4949 59.4438 63.2662 59.4438ZM65.9918 68.3528V60.7165H67.1254V61.9097H67.2248C67.3839 61.502 67.6407 61.1855 67.9954 60.9601C68.35 60.7314 68.7759 60.617 69.2731 60.617C69.7769 60.617 70.1961 60.7314 70.5309 60.9601C70.869 61.1855 71.1325 61.502 71.3214 61.9097H71.4009C71.5965 61.5152 71.8898 61.202 72.2809 60.97C72.672 60.7347 73.141 60.617 73.6879 60.617C74.3706 60.617 74.9291 60.8308 75.3633 61.2584C75.7975 61.6826 76.0146 62.3438 76.0146 63.242V68.3528H74.8413V63.242C74.8413 62.6786 74.6871 62.2759 74.3789 62.034C74.0707 61.792 73.7077 61.671 73.2901 61.671C72.7532 61.671 72.3372 61.8334 72.0423 62.1582C71.7473 62.4797 71.5998 62.8874 71.5998 63.3813V68.3528H70.4066V63.1227C70.4066 62.6885 70.2657 62.3389 69.984 62.0737C69.7023 61.8053 69.3394 61.671 68.8952 61.671C68.5903 61.671 68.3053 61.7522 68.0401 61.9146C67.7783 62.077 67.5662 62.3024 67.4038 62.5908C67.2447 62.8758 67.1651 63.2056 67.1651 63.5801V68.3528H65.9918ZM81.3615 68.5119C80.6257 68.5119 79.991 68.3495 79.4574 68.0247C78.9271 67.6966 78.5178 67.2392 78.2294 66.6526C77.9444 66.0626 77.8018 65.3765 77.8018 64.5943C77.8018 63.8121 77.9444 63.1227 78.2294 62.5261C78.5178 61.9262 78.9188 61.4589 79.4325 61.1242C79.9496 60.7861 80.5528 60.617 81.2422 60.617C81.6399 60.617 82.0327 60.6833 82.4205 60.8159C82.8082 60.9485 83.1612 61.1639 83.4794 61.4622C83.7976 61.7572 84.0511 62.1483 84.2401 62.6355C84.429 63.1227 84.5234 63.7226 84.5234 64.4352V64.9324H78.6371V63.9182H83.3303C83.3303 63.4873 83.2441 63.1028 83.0717 62.7648C82.9027 62.4267 82.6607 62.1599 82.3459 61.9643C82.0343 61.7688 81.6664 61.671 81.2422 61.671C80.7749 61.671 80.3705 61.787 80.0291 62.019C79.6911 62.2477 79.4309 62.546 79.2486 62.9139C79.0663 63.2818 78.9751 63.6762 78.9751 64.0972V64.7733C78.9751 65.35 79.0746 65.8389 79.2734 66.2399C79.4756 66.6376 79.7557 66.9409 80.1136 67.1497C80.4716 67.3552 80.8875 67.458 81.3615 67.458C81.6697 67.458 81.9482 67.4149 82.1967 67.3287C82.4486 67.2392 82.6657 67.1066 82.848 66.931C83.0303 66.752 83.1712 66.5299 83.2706 66.2648L84.4041 66.583C84.2848 66.9674 84.0843 67.3055 83.8026 67.5972C83.5208 67.8855 83.1728 68.1109 82.7585 68.2733C82.3442 68.4324 81.8786 68.5119 81.3615 68.5119ZM92.2344 60.7368C91.9544 60.7368 91.707 60.6435 91.4924 60.4568C91.2777 60.2608 91.1704 60.0042 91.1704 59.6868C91.1704 59.3695 91.2777 59.1175 91.4924 58.9308C91.707 58.7348 91.9544 58.6368 92.2344 58.6368C92.5144 58.6368 92.7617 58.7348 92.9764 58.9308C93.191 59.1175 93.2984 59.3695 93.2984 59.6868C93.2984 60.0042 93.191 60.2608 92.9764 60.4568C92.7617 60.6435 92.5144 60.7368 92.2344 60.7368ZM92.2344 67.5968C91.9544 67.5968 91.707 67.5035 91.4924 67.3168C91.2777 67.1208 91.1704 66.8642 91.1704 66.5468C91.1704 66.2202 91.2777 65.9635 91.4924 65.7768C91.707 65.5808 91.9544 65.4828 92.2344 65.4828C92.5144 65.4828 92.7617 65.5808 92.9764 65.7768C93.191 65.9635 93.2984 66.2202 93.2984 66.5468C93.2984 66.8642 93.191 67.1208 92.9764 67.3168C92.7617 67.5035 92.5144 67.5968 92.2344 67.5968ZM100.467 58.171H101.939L105.399 66.6227H105.518L108.979 58.171H110.45V68.3528H109.297V60.617H109.197L106.016 68.3528H104.902L101.72 60.617H101.621V68.3528H100.467V58.171ZM115.01 68.5318C114.527 68.5318 114.087 68.4407 113.693 68.2584C113.299 68.0728 112.985 67.806 112.753 67.458C112.521 67.1066 112.405 66.6824 112.405 66.1852C112.405 65.7477 112.492 65.3931 112.664 65.1213C112.836 64.8462 113.067 64.6308 113.355 64.475C113.643 64.3192 113.961 64.2032 114.309 64.127C114.661 64.0474 115.014 63.9845 115.368 63.9381C115.832 63.8784 116.209 63.8337 116.497 63.8038C116.789 63.7707 117.001 63.716 117.133 63.6398C117.269 63.5635 117.337 63.431 117.337 63.242V63.2023C117.337 62.7117 117.203 62.3306 116.934 62.0588C116.669 61.787 116.267 61.6511 115.726 61.6511C115.166 61.6511 114.727 61.7738 114.409 62.019C114.091 62.2643 113.867 62.5261 113.738 62.8045L112.624 62.4068C112.823 61.9428 113.088 61.5815 113.42 61.323C113.754 61.0612 114.119 60.8789 114.513 60.7761C114.911 60.6701 115.302 60.617 115.687 60.617C115.932 60.617 116.214 60.6469 116.532 60.7065C116.853 60.7629 117.163 60.8805 117.461 61.0595C117.763 61.2385 118.013 61.5086 118.212 61.8699C118.411 62.2312 118.51 62.7151 118.51 63.3216V68.3528H117.337V67.3188H117.278C117.198 67.4845 117.065 67.6618 116.88 67.8507C116.694 68.0396 116.447 68.2004 116.139 68.333C115.831 68.4655 115.455 68.5318 115.01 68.5318ZM115.189 67.4778C115.653 67.4778 116.045 67.3867 116.363 67.2044C116.684 67.0221 116.926 66.7868 117.089 66.4984C117.254 66.2101 117.337 65.9068 117.337 65.5886V64.5148C117.287 64.5744 117.178 64.6291 117.009 64.6788C116.843 64.7252 116.651 64.7667 116.432 64.8031C116.217 64.8363 116.006 64.8661 115.801 64.8926C115.599 64.9158 115.435 64.9357 115.309 64.9523C115.004 64.992 114.719 65.0567 114.454 65.1462C114.192 65.2323 113.98 65.3633 113.817 65.5389C113.658 65.7113 113.579 65.9466 113.579 66.2449C113.579 66.6526 113.729 66.9608 114.031 67.1696C114.336 67.3751 114.722 67.4778 115.189 67.4778ZM120.652 68.3528V60.7165H121.786V61.8699H121.865C122.004 61.492 122.256 61.1855 122.621 60.9501C122.985 60.7148 123.396 60.5972 123.854 60.5972C123.94 60.5972 124.048 60.5988 124.177 60.6021C124.306 60.6054 124.404 60.6104 124.47 60.617V61.8102C124.43 61.8003 124.339 61.7854 124.197 61.7655C124.058 61.7423 123.91 61.7307 123.754 61.7307C123.383 61.7307 123.052 61.8086 122.76 61.9643C122.472 62.1168 122.243 62.3289 122.074 62.6007C121.908 62.8692 121.825 63.1758 121.825 63.5205V68.3528H120.652ZM128.731 68.5119C128.015 68.5119 127.398 68.3429 126.881 68.0048C126.364 67.6668 125.967 67.2011 125.688 66.6078C125.41 66.0145 125.271 65.3367 125.271 64.5744C125.271 63.7989 125.413 63.1144 125.698 62.5212C125.987 61.9246 126.388 61.4589 126.901 61.1242C127.418 60.7861 128.022 60.617 128.711 60.617C129.248 60.617 129.732 60.7165 130.163 60.9153C130.594 61.1142 130.946 61.3926 131.222 61.7506C131.497 62.1085 131.667 62.5261 131.734 63.0034H130.56C130.471 62.6554 130.272 62.3472 129.964 62.0787C129.659 61.8069 129.248 61.671 128.731 61.671C128.273 61.671 127.872 61.7903 127.528 62.029C127.186 62.2643 126.92 62.5974 126.727 63.0283C126.538 63.4558 126.444 63.958 126.444 64.5347C126.444 65.1246 126.537 65.6384 126.722 66.0759C126.911 66.5134 127.176 66.8531 127.518 67.095C127.862 67.337 128.267 67.458 128.731 67.458C129.036 67.458 129.312 67.4049 129.561 67.2989C129.81 67.1928 130.02 67.0403 130.192 66.8415C130.365 66.6426 130.487 66.404 130.56 66.1256H131.734C131.667 66.5763 131.503 66.9823 131.241 67.3436C130.983 67.7016 130.64 67.9866 130.212 68.1987C129.788 68.4075 129.294 68.5119 128.731 68.5119ZM134.622 63.7591V68.3528H133.449V58.171H134.622V61.9097H134.722C134.901 61.5152 135.169 61.202 135.527 60.97C135.888 60.7347 136.369 60.617 136.969 60.617C137.489 60.617 137.945 60.7215 138.336 60.9303C138.727 61.1358 139.03 61.4523 139.246 61.8798C139.464 62.3041 139.574 62.8443 139.574 63.5006V68.3528H138.401V63.5801C138.401 62.9736 138.243 62.5046 137.928 62.1732C137.617 61.8384 137.184 61.671 136.631 61.671C136.246 61.671 135.902 61.7522 135.597 61.9146C135.295 62.077 135.056 62.314 134.881 62.6256C134.708 62.9371 134.622 63.315 134.622 63.7591ZM145.638 68.3528V67.458L148.999 63.779C149.393 63.3481 149.718 62.9736 149.973 62.6554C150.228 62.3339 150.417 62.0323 150.54 61.7506C150.666 61.4655 150.729 61.1672 150.729 60.8557C150.729 60.4977 150.643 60.1878 150.47 59.926C150.301 59.6642 150.069 59.462 149.774 59.3195C149.479 59.1769 149.148 59.1057 148.78 59.1057C148.389 59.1057 148.048 59.1869 147.756 59.3493C147.468 59.5084 147.244 59.7321 147.085 60.0205C146.929 60.3088 146.851 60.6469 146.851 61.0347H145.678C145.678 60.4381 145.815 59.9144 146.09 59.4636C146.365 59.0129 146.74 58.6616 147.214 58.4097C147.691 58.1578 148.227 58.0318 148.82 58.0318C149.416 58.0318 149.945 58.1578 150.406 58.4097C150.866 58.6616 151.228 59.0013 151.49 59.4288C151.751 59.8564 151.882 60.332 151.882 60.8557C151.882 61.2302 151.814 61.5965 151.678 61.9544C151.546 62.309 151.314 62.7051 150.982 63.1426C150.654 63.5768 150.199 64.1071 149.615 64.7335L147.328 67.1795V67.2591H152.061V68.3528H145.638ZM157.436 68.492C156.686 68.492 156.048 68.2882 155.521 67.8805C154.994 67.4696 154.592 66.8746 154.313 66.0957C154.035 65.3135 153.896 64.3689 153.896 63.2619C153.896 62.1616 154.035 61.2219 154.313 60.443C154.595 59.6608 154.999 59.0643 155.526 58.6533C156.057 58.239 156.693 58.0318 157.436 58.0318C158.178 58.0318 158.813 58.239 159.34 58.6533C159.87 59.0643 160.274 59.6608 160.553 60.443C160.834 61.2219 160.975 62.1616 160.975 63.2619C160.975 64.3689 160.836 65.3135 160.558 66.0957C160.279 66.8746 159.877 67.4696 159.35 67.8805C158.823 68.2882 158.185 68.492 157.436 68.492ZM157.436 67.3983C158.178 67.3983 158.755 67.0403 159.166 66.3244C159.577 65.6085 159.782 64.5877 159.782 63.2619C159.782 62.3803 159.688 61.6296 159.499 61.0098C159.313 60.39 159.045 59.9177 158.693 59.5929C158.345 59.2681 157.926 59.1057 157.436 59.1057C156.7 59.1057 156.125 59.4686 155.71 60.1945C155.296 60.917 155.089 61.9395 155.089 63.2619C155.089 64.1436 155.182 64.8926 155.367 65.5091C155.553 66.1256 155.82 66.5946 156.168 66.9161C156.519 67.2376 156.942 67.3983 157.436 67.3983ZM164.279 66.9608L164.199 67.4977C164.143 67.8756 164.057 68.2799 163.941 68.7108C163.828 69.1417 163.711 69.5477 163.588 69.9288C163.465 70.31 163.364 70.6133 163.285 70.8386H162.39C162.433 70.6265 162.489 70.3465 162.559 69.9984C162.628 69.6504 162.698 69.261 162.768 68.8301C162.84 68.4026 162.9 67.9651 162.947 67.5176L163.006 66.9608H164.279ZM170.37 68.3528V67.458L173.731 63.779C174.126 63.3481 174.45 62.9736 174.706 62.6554C174.961 62.3339 175.15 62.0323 175.272 61.7506C175.398 61.4655 175.461 61.1672 175.461 60.8557C175.461 60.4977 175.375 60.1878 175.203 59.926C175.034 59.6642 174.802 59.462 174.507 59.3195C174.212 59.1769 173.88 59.1057 173.512 59.1057C173.121 59.1057 172.78 59.1869 172.488 59.3493C172.2 59.5084 171.976 59.7321 171.817 60.0205C171.661 60.3088 171.583 60.6469 171.583 61.0347H170.41C170.41 60.4381 170.548 59.9144 170.823 59.4636C171.098 59.0129 171.472 58.6616 171.946 58.4097C172.424 58.1578 172.959 58.0318 173.552 58.0318C174.149 58.0318 174.677 58.1578 175.138 58.4097C175.599 58.6616 175.96 59.0013 176.222 59.4288C176.484 59.8564 176.615 60.332 176.615 60.8557C176.615 61.2302 176.547 61.5965 176.411 61.9544C176.278 62.309 176.046 62.7051 175.715 63.1426C175.387 63.5768 174.931 64.1071 174.348 64.7335L172.061 67.1795V67.2591H176.794V68.3528H170.37ZM182.168 68.492C181.419 68.492 180.781 68.2882 180.254 67.8805C179.727 67.4696 179.324 66.8746 179.046 66.0957C178.767 65.3135 178.628 64.3689 178.628 63.2619C178.628 62.1616 178.767 61.2219 179.046 60.443C179.328 59.6608 179.732 59.0643 180.259 58.6533C180.789 58.239 181.426 58.0318 182.168 58.0318C182.91 58.0318 183.545 58.239 184.072 58.6533C184.602 59.0643 185.007 59.6608 185.285 60.443C185.567 61.2219 185.708 62.1616 185.708 63.2619C185.708 64.3689 185.569 65.3135 185.29 66.0957C185.012 66.8746 184.609 67.4696 184.082 67.8805C183.555 68.2882 182.917 68.492 182.168 68.492ZM182.168 67.3983C182.91 67.3983 183.487 67.0403 183.898 66.3244C184.309 65.6085 184.515 64.5877 184.515 63.2619C184.515 62.3803 184.42 61.6296 184.231 61.0098C184.046 60.39 183.777 59.9177 183.426 59.5929C183.078 59.2681 182.658 59.1057 182.168 59.1057C181.432 59.1057 180.857 59.4686 180.443 60.1945C180.029 60.917 179.821 61.9395 179.821 63.2619C179.821 64.1436 179.914 64.8926 180.1 65.5091C180.285 66.1256 180.552 66.5946 180.9 66.9161C181.252 67.2376 181.674 67.3983 182.168 67.3983ZM187.597 68.3528V67.458L190.958 63.779C191.352 63.3481 191.677 62.9736 191.932 62.6554C192.187 62.3339 192.376 62.0323 192.499 61.7506C192.625 61.4655 192.688 61.1672 192.688 60.8557C192.688 60.4977 192.602 60.1878 192.429 59.926C192.26 59.6642 192.028 59.462 191.733 59.3195C191.438 59.1769 191.107 59.1057 190.739 59.1057C190.348 59.1057 190.007 59.1869 189.715 59.3493C189.426 59.5084 189.203 59.7321 189.044 60.0205C188.888 60.3088 188.81 60.6469 188.81 61.0347H187.637C187.637 60.4381 187.774 59.9144 188.049 59.4636C188.324 59.0129 188.699 58.6616 189.173 58.4097C189.65 58.1578 190.185 58.0318 190.779 58.0318C191.375 58.0318 191.904 58.1578 192.365 58.4097C192.825 58.6616 193.187 59.0013 193.449 59.4288C193.71 59.8564 193.841 60.332 193.841 60.8557C193.841 61.2302 193.773 61.5965 193.637 61.9544C193.505 62.309 193.273 62.7051 192.941 63.1426C192.613 63.5768 192.158 64.1071 191.574 64.7335L189.287 67.1795V67.2591H194.02V68.3528H187.597ZM199.454 68.492C199.037 68.4854 198.619 68.4059 198.201 68.2534C197.784 68.101 197.403 67.8441 197.058 67.4828C196.713 67.1182 196.436 66.626 196.228 66.0063C196.019 65.3831 195.914 64.601 195.914 63.6597C195.914 62.7581 195.999 61.9594 196.168 61.2634C196.337 60.564 196.582 59.9757 196.904 59.4984C197.225 59.0179 197.613 58.6533 198.067 58.4047C198.525 58.1561 199.04 58.0318 199.613 58.0318C200.183 58.0318 200.69 58.1462 201.135 58.3749C201.582 58.6002 201.947 58.9151 202.228 59.3195C202.51 59.7238 202.692 60.1895 202.775 60.7165H201.562C201.449 60.2591 201.231 59.8796 200.906 59.578C200.581 59.2764 200.15 59.1256 199.613 59.1256C198.824 59.1256 198.203 59.4686 197.749 60.1547C197.298 60.8408 197.071 61.8036 197.068 63.0432H197.147C197.333 62.7615 197.553 62.5212 197.809 62.3223C198.067 62.1201 198.352 61.9643 198.664 61.855C198.975 61.7456 199.305 61.6909 199.653 61.6909C200.236 61.6909 200.77 61.8367 201.254 62.1284C201.738 62.4168 202.126 62.8161 202.417 63.3266C202.709 63.8337 202.855 64.4153 202.855 65.0716C202.855 65.7013 202.714 66.278 202.432 66.8017C202.15 67.3221 201.754 67.7364 201.244 68.0446C200.737 68.3495 200.14 68.4987 199.454 68.492ZM199.454 67.3983C199.872 67.3983 200.246 67.2939 200.578 67.0851C200.913 66.8763 201.176 66.5962 201.368 66.2449C201.564 65.8936 201.662 65.5025 201.662 65.0716C201.662 64.6507 201.567 64.2679 201.378 63.9232C201.193 63.5751 200.936 63.2984 200.608 63.0929C200.283 62.8874 199.912 62.7847 199.494 62.7847C199.179 62.7847 198.886 62.8476 198.614 62.9736C198.342 63.0962 198.104 63.2652 197.898 63.4807C197.696 63.6961 197.537 63.943 197.421 64.2215C197.305 64.4965 197.247 64.7866 197.247 65.0915C197.247 65.4958 197.341 65.8737 197.53 66.225C197.722 66.5763 197.984 66.8597 198.316 67.0751C198.65 67.2906 199.03 67.3983 199.454 67.3983ZM206.101 66.9608L206.022 67.4977C205.965 67.8756 205.879 68.2799 205.763 68.7108C205.65 69.1417 205.533 69.5477 205.41 69.9288C205.288 70.31 205.186 70.6133 205.107 70.8386H204.212C204.255 70.6265 204.311 70.3465 204.381 69.9984C204.451 69.6504 204.52 69.261 204.59 68.8301C204.663 68.4026 204.722 67.9651 204.769 67.5176L204.828 66.9608H206.101ZM215.772 58.171V68.3528H214.539V59.4636H214.48L211.994 61.1142V59.8614L214.539 58.171H215.772ZM222.081 68.492C221.664 68.4854 221.246 68.4059 220.828 68.2534C220.411 68.101 220.03 67.8441 219.685 67.4828C219.34 67.1182 219.063 66.626 218.855 66.0063C218.646 65.3831 218.541 64.601 218.541 63.6597C218.541 62.7581 218.626 61.9594 218.795 61.2634C218.964 60.564 219.209 59.9757 219.531 59.4984C219.852 59.0179 220.24 58.6533 220.694 58.4047C221.151 58.1561 221.667 58.0318 222.24 58.0318C222.81 58.0318 223.317 58.1462 223.762 58.3749C224.209 58.6002 224.574 58.9151 224.855 59.3195C225.137 59.7238 225.319 60.1895 225.402 60.7165H224.189C224.076 60.2591 223.858 59.8796 223.533 59.578C223.208 59.2764 222.777 59.1256 222.24 59.1256C221.451 59.1256 220.83 59.4686 220.376 60.1547C219.925 60.8408 219.698 61.8036 219.695 63.0432H219.774C219.96 62.7615 220.18 62.5212 220.436 62.3223C220.694 62.1201 220.979 61.9643 221.291 61.855C221.602 61.7456 221.932 61.6909 222.28 61.6909C222.863 61.6909 223.397 61.8367 223.881 62.1284C224.365 62.4168 224.753 62.8161 225.044 63.3266C225.336 63.8337 225.482 64.4153 225.482 65.0716C225.482 65.7013 225.341 66.278 225.059 66.8017C224.777 67.3221 224.381 67.7364 223.871 68.0446C223.364 68.3495 222.767 68.4987 222.081 68.492ZM222.081 67.3983C222.499 67.3983 222.873 67.2939 223.205 67.0851C223.539 66.8763 223.803 66.5962 223.995 66.2449C224.191 65.8936 224.289 65.5025 224.289 65.0716C224.289 64.6507 224.194 64.2679 224.005 63.9232C223.82 63.5751 223.563 63.2984 223.235 63.0929C222.91 62.8874 222.539 62.7847 222.121 62.7847C221.806 62.7847 221.513 62.8476 221.241 62.9736C220.969 63.0962 220.731 63.2652 220.525 63.4807C220.323 63.6961 220.164 63.943 220.048 64.2215C219.932 64.4965 219.874 64.7866 219.874 65.0915C219.874 65.4958 219.968 65.8737 220.157 66.225C220.349 66.5763 220.611 66.8597 220.943 67.0751C221.277 67.2906 221.657 67.3983 222.081 67.3983ZM228.312 67.0503C228.067 67.0503 227.856 66.9625 227.68 66.7868C227.505 66.6111 227.417 66.4007 227.417 66.1554C227.417 65.9101 227.505 65.6997 227.68 65.524C227.856 65.3483 228.067 65.2605 228.312 65.2605C228.557 65.2605 228.768 65.3483 228.943 65.524C229.119 65.6997 229.207 65.9101 229.207 66.1554C229.207 66.3178 229.165 66.467 229.082 66.6028C229.003 66.7387 228.895 66.8481 228.759 66.931C228.627 67.0105 228.478 67.0503 228.312 67.0503ZM228.312 61.8997C228.067 61.8997 227.856 61.8119 227.68 61.6362C227.505 61.4606 227.417 61.2501 227.417 61.0048C227.417 60.7596 227.505 60.5491 227.68 60.3734C227.856 60.1978 228.067 60.1099 228.312 60.1099C228.557 60.1099 228.768 60.1978 228.943 60.3734C229.119 60.5491 229.207 60.7596 229.207 61.0048C229.207 61.1672 229.165 61.3164 229.082 61.4523C229.003 61.5882 228.895 61.6975 228.759 61.7804C228.627 61.8599 228.478 61.8997 228.312 61.8997ZM234.613 68.492C233.864 68.492 233.226 68.2882 232.699 67.8805C232.172 67.4696 231.77 66.8746 231.491 66.0957C231.213 65.3135 231.074 64.3689 231.074 63.2619C231.074 62.1616 231.213 61.2219 231.491 60.443C231.773 59.6608 232.177 59.0643 232.704 58.6533C233.234 58.239 233.871 58.0318 234.613 58.0318C235.356 58.0318 235.99 58.239 236.517 58.6533C237.048 59.0643 237.452 59.6608 237.73 60.443C238.012 61.2219 238.153 62.1616 238.153 63.2619C238.153 64.3689 238.014 65.3135 237.735 66.0957C237.457 66.8746 237.054 67.4696 236.527 67.8805C236 68.2882 235.362 68.492 234.613 68.492ZM234.613 67.3983C235.356 67.3983 235.932 67.0403 236.343 66.3244C236.754 65.6085 236.96 64.5877 236.96 63.2619C236.96 62.3803 236.865 61.6296 236.676 61.0098C236.491 60.39 236.222 59.9177 235.871 59.5929C235.523 59.2681 235.104 59.1057 234.613 59.1057C233.877 59.1057 233.302 59.4686 232.888 60.1945C232.474 60.917 232.267 61.9395 232.267 63.2619C232.267 64.1436 232.359 64.8926 232.545 65.5091C232.731 66.1256 232.998 66.5946 233.346 66.9161C233.697 67.2376 234.119 67.3983 234.613 67.3983ZM243.363 68.492C242.614 68.492 241.976 68.2882 241.449 67.8805C240.922 67.4696 240.52 66.8746 240.241 66.0957C239.963 65.3135 239.824 64.3689 239.824 63.2619C239.824 62.1616 239.963 61.2219 240.241 60.443C240.523 59.6608 240.927 59.0643 241.454 58.6533C241.984 58.239 242.621 58.0318 243.363 58.0318C244.106 58.0318 244.74 58.239 245.267 58.6533C245.798 59.0643 246.202 59.6608 246.48 60.443C246.762 61.2219 246.903 62.1616 246.903 63.2619C246.903 64.3689 246.764 65.3135 246.485 66.0957C246.207 66.8746 245.804 67.4696 245.277 67.8805C244.75 68.2882 244.112 68.492 243.363 68.492ZM243.363 67.3983C244.106 67.3983 244.682 67.0403 245.093 66.3244C245.504 65.6085 245.71 64.5877 245.71 63.2619C245.71 62.3803 245.615 61.6296 245.426 61.0098C245.241 60.39 244.972 59.9177 244.621 59.5929C244.273 59.2681 243.854 59.1057 243.363 59.1057C242.627 59.1057 242.052 59.4686 241.638 60.1945C241.224 60.917 241.017 61.9395 241.017 63.2619C241.017 64.1436 241.109 64.8926 241.295 65.5091C241.481 66.1256 241.748 66.5946 242.096 66.9161C242.447 67.2376 242.869 67.3983 243.363 67.3983ZM253.167 63.2619C253.167 62.0091 253.33 60.8573 253.654 59.8067C253.983 58.7527 254.45 57.7832 255.056 56.8983H256.091C255.852 57.2264 255.628 57.6308 255.419 58.1114C255.214 58.5886 255.033 59.114 254.877 59.6874C254.722 60.2574 254.599 60.8474 254.51 61.4572C254.423 62.0671 254.38 62.6687 254.38 63.2619C254.38 64.0508 254.457 64.8512 254.609 65.6632C254.761 66.4752 254.967 67.2293 255.225 67.9253C255.484 68.6213 255.772 69.1881 256.091 69.6256H255.056C254.45 68.7406 253.983 67.7728 253.654 66.7222C253.33 65.6682 253.167 64.5148 253.167 63.2619ZM264.663 58.171H265.896V64.9125C265.896 65.6085 265.732 66.23 265.404 66.7768C265.079 67.3204 264.62 67.7496 264.026 68.0645C263.433 68.376 262.737 68.5318 261.938 68.5318C261.14 68.5318 260.444 68.376 259.85 68.0645C259.257 67.7496 258.796 67.3204 258.468 66.7768C258.143 66.23 257.981 65.6085 257.981 64.9125V58.171H259.214V64.8131C259.214 65.3102 259.323 65.7527 259.542 66.1405C259.761 66.525 260.072 66.8282 260.477 67.0503C260.884 67.269 261.372 67.3784 261.938 67.3784C262.505 67.3784 262.992 67.269 263.4 67.0503C263.808 66.8282 264.119 66.525 264.335 66.1405C264.553 65.7527 264.663 65.3102 264.663 64.8131V58.171ZM267.801 59.2648V58.171H275.438V59.2648H272.236V68.3528H271.003V59.2648H267.801ZM285.11 61.3528H283.877C283.804 60.9982 283.676 60.6867 283.494 60.4182C283.315 60.1497 283.096 59.9243 282.838 59.742C282.583 59.5564 282.299 59.4172 281.988 59.3244C281.676 59.2316 281.351 59.1852 281.013 59.1852C280.397 59.1852 279.838 59.341 279.338 59.6526C278.841 59.9641 278.444 60.4232 278.15 61.0297C277.858 61.6362 277.712 62.3803 277.712 63.2619C277.712 64.1436 277.858 64.8876 278.15 65.4942C278.444 66.1007 278.841 66.5598 279.338 66.8713C279.838 67.1829 280.397 67.3386 281.013 67.3386C281.351 67.3386 281.676 67.2922 281.988 67.1994C282.299 67.1066 282.583 66.9691 282.838 66.7868C283.096 66.6012 283.315 66.3742 283.494 66.1057C283.676 65.8339 283.804 65.5224 283.877 65.171H285.11C285.017 65.6914 284.848 66.1571 284.603 66.568C284.357 66.979 284.052 67.3287 283.688 67.617C283.323 67.9021 282.914 68.1192 282.46 68.2683C282.009 68.4175 281.527 68.492 281.013 68.492C280.145 68.492 279.373 68.2799 278.696 67.8557C278.02 67.4314 277.488 66.8282 277.1 66.046C276.713 65.2638 276.519 64.3358 276.519 63.2619C276.519 62.1881 276.713 61.26 277.1 60.4778C277.488 59.6956 278.02 59.0924 278.696 58.6682C279.373 58.2439 280.145 58.0318 281.013 58.0318C281.527 58.0318 282.009 58.1064 282.46 58.2555C282.914 58.4047 283.323 58.6234 283.688 58.9118C284.052 59.1968 284.357 59.5448 284.603 59.9558C284.848 60.3635 285.017 60.8292 285.11 61.3528ZM289.926 66.5631V60.0006H291.04V66.5631H289.926ZM287.202 63.8386V62.725H293.764V63.8386H287.202ZM299.413 68.492C298.73 68.492 298.127 68.3711 297.603 68.1291C297.083 67.8839 296.677 67.5474 296.385 67.1199C296.094 66.689 295.949 66.1985 295.953 65.6483C295.949 65.2174 296.034 64.8197 296.206 64.4551C296.379 64.0872 296.614 63.7806 296.912 63.5354C297.214 63.2868 297.55 63.1294 297.922 63.0631V63.0034C297.434 62.8775 297.047 62.604 296.758 62.1831C296.47 61.7589 296.327 61.2766 296.331 60.7364C296.327 60.2193 296.458 59.757 296.723 59.3493C296.989 58.9416 297.353 58.6201 297.817 58.3848C298.284 58.1495 298.816 58.0318 299.413 58.0318C300.003 58.0318 300.53 58.1495 300.994 58.3848C301.458 58.6201 301.823 58.9416 302.088 59.3493C302.356 59.757 302.492 60.2193 302.495 60.7364C302.492 61.2766 302.345 61.7589 302.053 62.1831C301.765 62.604 301.382 62.8775 300.904 63.0034V63.0631C301.272 63.1294 301.604 63.2868 301.899 63.5354C302.194 63.7806 302.429 64.0872 302.605 64.4551C302.78 64.8197 302.87 65.2174 302.873 65.6483C302.87 66.1985 302.721 66.689 302.426 67.1199C302.134 67.5474 301.728 67.8839 301.208 68.1291C300.691 68.3711 300.092 68.492 299.413 68.492ZM299.413 67.3983C299.874 67.3983 300.271 67.3237 300.606 67.1746C300.941 67.0254 301.199 66.815 301.382 66.5432C301.564 66.2714 301.657 65.9532 301.66 65.5886C301.657 65.2042 301.557 64.8644 301.362 64.5695C301.166 64.2745 300.9 64.0425 300.561 63.8734C300.227 63.7044 299.844 63.6199 299.413 63.6199C298.979 63.6199 298.591 63.7044 298.25 63.8734C297.912 64.0425 297.645 64.2745 297.449 64.5695C297.257 64.8644 297.163 65.2042 297.166 65.5886C297.163 65.9532 297.25 66.2714 297.429 66.5432C297.612 66.815 297.872 67.0254 298.21 67.1746C298.548 67.3237 298.949 67.3983 299.413 67.3983ZM299.413 62.5659C299.778 62.5659 300.101 62.493 300.382 62.3472C300.667 62.2013 300.891 61.9975 301.054 61.7357C301.216 61.4738 301.299 61.1672 301.302 60.8159C301.299 60.4712 301.218 60.1713 301.059 59.9161C300.9 59.6575 300.679 59.4587 300.397 59.3195C300.116 59.1769 299.788 59.1057 299.413 59.1057C299.032 59.1057 298.699 59.1769 298.414 59.3195C298.129 59.4587 297.908 59.6575 297.752 59.9161C297.597 60.1713 297.52 60.4712 297.524 60.8159C297.52 61.1672 297.598 61.4738 297.757 61.7357C297.92 61.9975 298.144 62.2013 298.429 62.3472C298.714 62.493 299.042 62.5659 299.413 62.5659ZM307.304 63.2619C307.304 64.5148 307.14 65.6682 306.812 66.7222C306.487 67.7728 306.021 68.7406 305.415 69.6256H304.381C304.619 69.2974 304.842 68.8931 305.047 68.4125C305.256 67.9352 305.438 67.4116 305.594 66.8415C305.75 66.2681 305.871 65.6765 305.957 65.0666C306.046 64.4535 306.091 63.8519 306.091 63.2619C306.091 62.4731 306.015 61.6727 305.862 60.8607C305.71 60.0486 305.504 59.2946 305.246 58.5986C304.987 57.9026 304.699 57.3358 304.381 56.8983H305.415C306.021 57.7832 306.487 58.7527 306.812 59.8067C307.14 60.8573 307.304 62.0091 307.304 63.2619ZM17.233 92.3528V82.171H23.3778V83.2648H18.4659V86.7051H23.0597V87.7989H18.4659V91.2591H23.4574V92.3528H17.233ZM26.6143 87.7591V92.3528H25.4411V84.7165H26.5746V85.9097H26.674C26.853 85.5219 27.1248 85.2103 27.4893 84.975C27.8539 84.7364 28.3246 84.617 28.9013 84.617C29.4183 84.617 29.8707 84.7231 30.2585 84.9352C30.6463 85.144 30.9479 85.4622 31.1634 85.8898C31.3788 86.314 31.4865 86.851 31.4865 87.5006V92.3528H30.3132V87.5801C30.3132 86.9802 30.1574 86.5129 29.8459 86.1781C29.5343 85.8401 29.1068 85.671 28.5632 85.671C28.1887 85.671 27.8539 85.7522 27.5589 85.9146C27.2673 86.077 27.0369 86.314 26.8679 86.6256C26.6989 86.9371 26.6143 87.315 26.6143 87.7591ZM36.514 92.5119C35.8777 92.5119 35.3159 92.3512 34.8287 92.0297C34.3414 91.7049 33.9603 91.2475 33.6852 90.6575C33.4101 90.0643 33.2725 89.3633 33.2725 88.5545C33.2725 87.7525 33.4101 87.0564 33.6852 86.4665C33.9603 85.8765 34.3431 85.4208 34.8336 85.0993C35.3242 84.7778 35.8909 84.617 36.5339 84.617C37.0311 84.617 37.4238 84.6999 37.7122 84.8656C38.0038 85.028 38.2259 85.2136 38.3784 85.4224C38.5342 85.6279 38.6551 85.797 38.7413 85.9295H38.8407V82.171H40.014V92.3528H38.8805V91.1795H38.7413C38.6551 91.3188 38.5325 91.4944 38.3734 91.7065C38.2143 91.9153 37.9873 92.1026 37.6923 92.2683C37.3973 92.4307 37.0046 92.5119 36.514 92.5119ZM36.6731 91.458C37.1438 91.458 37.5415 91.3353 37.8663 91.0901C38.1911 90.8415 38.438 90.4984 38.6071 90.0609C38.7761 89.6201 38.8606 89.1114 38.8606 88.5347C38.8606 87.9646 38.7778 87.4658 38.612 87.0382C38.4463 86.6073 38.2011 86.2726 37.8762 86.034C37.5514 85.792 37.1504 85.671 36.6731 85.671C36.176 85.671 35.7617 85.7986 35.4302 86.0538C35.1021 86.3057 34.8552 86.6488 34.6895 87.083C34.527 87.5138 34.4458 87.9977 34.4458 88.5347C34.4458 89.0782 34.5287 89.5721 34.6944 90.0162C34.8635 90.457 35.112 90.8083 35.4402 91.0702C35.7716 91.3287 36.1826 91.458 36.6731 91.458ZM45.8656 83.2648V82.171H53.502V83.2648H50.3002V92.3528H49.0673V83.2648H45.8656ZM55.2457 92.3528V84.7165H56.419V92.3528H55.2457ZM55.8423 83.4438C55.6136 83.4438 55.4164 83.3659 55.2507 83.2101C55.0883 83.0543 55.0071 82.867 55.0071 82.6483C55.0071 82.4295 55.0883 82.2423 55.2507 82.0865C55.4164 81.9307 55.6136 81.8528 55.8423 81.8528C56.071 81.8528 56.2666 81.9307 56.429 82.0865C56.5947 82.2423 56.6776 82.4295 56.6776 82.6483C56.6776 82.867 56.5947 83.0543 56.429 83.2101C56.2666 83.3659 56.071 83.4438 55.8423 83.4438ZM58.568 92.3528V84.7165H59.7015V85.9097H59.801C59.96 85.502 60.2169 85.1855 60.5716 84.9601C60.9262 84.7314 61.3521 84.617 61.8493 84.617C62.353 84.617 62.7723 84.7314 63.1071 84.9601C63.4451 85.1855 63.7086 85.502 63.8975 85.9097H63.9771C64.1726 85.5152 64.466 85.202 64.8571 84.97C65.2482 84.7347 65.7172 84.617 66.264 84.617C66.9468 84.617 67.5053 84.8308 67.9395 85.2584C68.3736 85.6826 68.5907 86.3438 68.5907 87.242V92.3528H67.4174V87.242C67.4174 86.6786 67.2633 86.2759 66.9551 86.034C66.6468 85.792 66.2839 85.671 65.8663 85.671C65.3294 85.671 64.9134 85.8334 64.6184 86.1582C64.3234 86.4797 64.176 86.8874 64.176 87.3813V92.3528H62.9828V87.1227C62.9828 86.6885 62.8419 86.3389 62.5602 86.0737C62.2785 85.8053 61.9155 85.671 61.4714 85.671C61.1665 85.671 60.8815 85.7522 60.6163 85.9146C60.3545 86.077 60.1423 86.3024 59.9799 86.5908C59.8208 86.8758 59.7413 87.2056 59.7413 87.5801V92.3528H58.568ZM73.9377 92.5119C73.2019 92.5119 72.5672 92.3495 72.0336 92.0247C71.5033 91.6966 71.0939 91.2392 70.8056 90.6526C70.5205 90.0626 70.378 89.3765 70.378 88.5943C70.378 87.8121 70.5205 87.1227 70.8056 86.5261C71.0939 85.9262 71.495 85.4589 72.0087 85.1242C72.5257 84.7861 73.129 84.617 73.8184 84.617C74.2161 84.617 74.6088 84.6833 74.9966 84.8159C75.3844 84.9485 75.7374 85.1639 76.0556 85.4622C76.3738 85.7572 76.6273 86.1483 76.8162 86.6355C77.0051 87.1227 77.0996 87.7226 77.0996 88.4352V88.9324H71.2132V87.9182H75.9064C75.9064 87.4873 75.8203 87.1028 75.6479 86.7648C75.4789 86.4267 75.2369 86.1599 74.9221 85.9643C74.6105 85.7688 74.2426 85.671 73.8184 85.671C73.351 85.671 72.9467 85.787 72.6053 86.019C72.2672 86.2477 72.007 86.546 71.8248 86.9139C71.6425 87.2818 71.5513 87.6762 71.5513 88.0972V88.7733C71.5513 89.35 71.6507 89.8389 71.8496 90.2399C72.0518 90.6376 72.3319 90.9409 72.6898 91.1497C73.0478 91.3552 73.4637 91.458 73.9377 91.458C74.2459 91.458 74.5243 91.4149 74.7729 91.3287C75.0248 91.2392 75.2419 91.1066 75.4242 90.931C75.6065 90.752 75.7473 90.5299 75.8468 90.2648L76.9803 90.583C76.861 90.9674 76.6605 91.3055 76.3787 91.5972C76.097 91.8855 75.749 92.1109 75.3347 92.2733C74.9204 92.4324 74.4547 92.5119 73.9377 92.5119ZM84.8105 84.7368C84.5305 84.7368 84.2832 84.6435 84.0685 84.4568C83.8539 84.2608 83.7465 84.0042 83.7465 83.6868C83.7465 83.3695 83.8539 83.1175 84.0685 82.9308C84.2832 82.7348 84.5305 82.6368 84.8105 82.6368C85.0905 82.6368 85.3379 82.7348 85.5525 82.9308C85.7672 83.1175 85.8745 83.3695 85.8745 83.6868C85.8745 84.0042 85.7672 84.2608 85.5525 84.4568C85.3379 84.6435 85.0905 84.7368 84.8105 84.7368ZM84.8105 91.5968C84.5305 91.5968 84.2832 91.5035 84.0685 91.3168C83.8539 91.1208 83.7465 90.8642 83.7465 90.5468C83.7465 90.2202 83.8539 89.9635 84.0685 89.7768C84.2832 89.5808 84.5305 89.4828 84.8105 89.4828C85.0905 89.4828 85.3379 89.5808 85.5525 89.7768C85.7672 89.9635 85.8745 90.2202 85.8745 90.5468C85.8745 90.8642 85.7672 91.1208 85.5525 91.3168C85.3379 91.5035 85.0905 91.5968 84.8105 91.5968ZM93.0435 82.171H94.5151L97.9753 90.6227H98.0946L101.555 82.171H103.026V92.3528H101.873V84.617H101.774L98.5918 92.3528H97.4782L94.2963 84.617H94.1969V92.3528H93.0435V82.171ZM107.587 92.5318C107.103 92.5318 106.664 92.4407 106.269 92.2584C105.875 92.0728 105.562 91.806 105.33 91.458C105.098 91.1066 104.982 90.6824 104.982 90.1852C104.982 89.7477 105.068 89.3931 105.24 89.1213C105.412 88.8462 105.643 88.6308 105.931 88.475C106.219 88.3192 106.538 88.2032 106.886 88.127C107.237 88.0474 107.59 87.9845 107.945 87.9381C108.409 87.8784 108.785 87.8337 109.073 87.8038C109.365 87.7707 109.577 87.716 109.71 87.6398C109.845 87.5635 109.913 87.431 109.913 87.242V87.2023C109.913 86.7117 109.779 86.3306 109.511 86.0588C109.246 85.787 108.843 85.6511 108.303 85.6511C107.742 85.6511 107.303 85.7738 106.985 86.019C106.667 86.2643 106.443 86.5261 106.314 86.8045L105.2 86.4068C105.399 85.9428 105.664 85.5815 105.996 85.323C106.33 85.0612 106.695 84.8789 107.089 84.7761C107.487 84.6701 107.878 84.617 108.263 84.617C108.508 84.617 108.79 84.6469 109.108 84.7065C109.429 84.7629 109.739 84.8805 110.038 85.0595C110.339 85.2385 110.589 85.5086 110.788 85.8699C110.987 86.2312 111.087 86.7151 111.087 87.3216V92.3528H109.913V91.3188H109.854C109.774 91.4845 109.642 91.6618 109.456 91.8507C109.27 92.0396 109.023 92.2004 108.715 92.333C108.407 92.4655 108.031 92.5318 107.587 92.5318ZM107.766 91.4778C108.23 91.4778 108.621 91.3867 108.939 91.2044C109.26 91.0221 109.502 90.7868 109.665 90.4984C109.83 90.2101 109.913 89.9068 109.913 89.5886V88.5148C109.864 88.5744 109.754 88.6291 109.585 88.6788C109.42 88.7252 109.227 88.7667 109.009 88.8031C108.793 88.8363 108.583 88.8661 108.377 88.8926C108.175 88.9158 108.011 88.9357 107.885 88.9523C107.58 88.992 107.295 89.0567 107.03 89.1462C106.768 89.2323 106.556 89.3633 106.393 89.5389C106.234 89.7113 106.155 89.9466 106.155 90.2449C106.155 90.6526 106.306 90.9608 106.607 91.1696C106.912 91.3751 107.298 91.4778 107.766 91.4778ZM113.228 92.3528V84.7165H114.362V85.8699H114.441C114.58 85.492 114.832 85.1855 115.197 84.9501C115.561 84.7148 115.972 84.5972 116.43 84.5972C116.516 84.5972 116.624 84.5988 116.753 84.6021C116.882 84.6054 116.98 84.6104 117.046 84.617V85.8102C117.007 85.8003 116.915 85.7854 116.773 85.7655C116.634 85.7423 116.486 85.7307 116.33 85.7307C115.959 85.7307 115.628 85.8086 115.336 85.9643C115.048 86.1168 114.819 86.3289 114.65 86.6007C114.484 86.8692 114.401 87.1758 114.401 87.5205V92.3528H113.228ZM121.307 92.5119C120.591 92.5119 119.975 92.3429 119.458 92.0048C118.941 91.6668 118.543 91.2011 118.264 90.6078C117.986 90.0145 117.847 89.3367 117.847 88.5744C117.847 87.7989 117.989 87.1144 118.274 86.5212C118.563 85.9246 118.964 85.4589 119.477 85.1242C119.994 84.7861 120.598 84.617 121.287 84.617C121.824 84.617 122.308 84.7165 122.739 84.9153C123.17 85.1142 123.523 85.3926 123.798 85.7506C124.073 86.1085 124.244 86.5261 124.31 87.0034H123.137C123.047 86.6554 122.848 86.3472 122.54 86.0787C122.235 85.8069 121.824 85.671 121.307 85.671C120.85 85.671 120.449 85.7903 120.104 86.029C119.762 86.2643 119.496 86.5974 119.303 87.0283C119.115 87.4558 119.02 87.958 119.02 88.5347C119.02 89.1246 119.113 89.6384 119.298 90.0759C119.487 90.5134 119.753 90.8531 120.094 91.095C120.439 91.337 120.843 91.458 121.307 91.458C121.612 91.458 121.889 91.4049 122.137 91.2989C122.386 91.1928 122.596 91.0403 122.769 90.8415C122.941 90.6426 123.064 90.404 123.137 90.1256H124.31C124.244 90.5763 124.079 90.9823 123.818 91.3436C123.559 91.7016 123.216 91.9866 122.789 92.1987C122.364 92.4075 121.87 92.5119 121.307 92.5119ZM127.198 87.7591V92.3528H126.025V82.171H127.198V85.9097H127.298C127.477 85.5152 127.745 85.202 128.103 84.97C128.464 84.7347 128.945 84.617 129.545 84.617C130.065 84.617 130.521 84.7215 130.912 84.9303C131.303 85.1358 131.606 85.4523 131.822 85.8798C132.041 86.3041 132.15 86.8443 132.15 87.5006V92.3528H130.977V87.5801C130.977 86.9736 130.819 86.5046 130.504 86.1732C130.193 85.8384 129.76 85.671 129.207 85.671C128.822 85.671 128.478 85.7522 128.173 85.9146C127.871 86.077 127.633 86.314 127.457 86.6256C127.285 86.9371 127.198 87.315 127.198 87.7591ZM141.654 92.492C140.998 92.492 140.413 92.3794 139.9 92.154C139.389 91.9286 138.983 91.6154 138.681 91.2143C138.383 90.81 138.221 90.341 138.194 89.8074H139.447C139.474 90.1355 139.586 90.4189 139.785 90.6575C139.984 90.8929 140.244 91.0751 140.566 91.2044C140.887 91.3337 141.243 91.3983 141.635 91.3983C142.072 91.3983 142.46 91.3221 142.798 91.1696C143.136 91.0171 143.401 90.805 143.593 90.5332C143.786 90.2615 143.882 89.9466 143.882 89.5886C143.882 89.2141 143.789 88.8843 143.603 88.5993C143.418 88.3109 143.146 88.0856 142.788 87.9232C142.43 87.7608 141.993 87.6795 141.475 87.6795H140.66V86.5858H141.475C141.88 86.5858 142.234 86.5129 142.539 86.367C142.848 86.2212 143.088 86.0157 143.26 85.7506C143.436 85.4854 143.524 85.1739 143.524 84.8159C143.524 84.4712 143.448 84.1713 143.295 83.9161C143.143 83.6608 142.927 83.462 142.649 83.3195C142.374 83.1769 142.049 83.1057 141.674 83.1057C141.323 83.1057 140.992 83.1703 140.68 83.2996C140.372 83.4255 140.12 83.6095 139.924 83.8514C139.729 84.0901 139.623 84.3784 139.606 84.7165H138.413C138.433 84.1829 138.594 83.7155 138.895 83.3145C139.197 82.9101 139.591 82.5953 140.078 82.3699C140.569 82.1445 141.108 82.0318 141.694 82.0318C142.324 82.0318 142.864 82.1594 143.315 82.4146C143.766 82.6665 144.112 82.9996 144.354 83.4139C144.596 83.8282 144.717 84.2757 144.717 84.7563C144.717 85.3296 144.566 85.8185 144.265 86.2229C143.966 86.6272 143.56 86.9073 143.047 87.0631V87.1426C143.69 87.2487 144.192 87.5221 144.553 87.9629C144.914 88.4004 145.095 88.9423 145.095 89.5886C145.095 90.1421 144.944 90.6393 144.642 91.0801C144.344 91.5176 143.936 91.8623 143.419 92.1142C142.902 92.3661 142.314 92.492 141.654 92.492ZM150.708 82.171V92.3528H149.475V83.4636H149.415L146.929 85.1142V83.8614L149.475 82.171H150.708ZM154.804 90.9608L154.725 91.4977C154.668 91.8756 154.582 92.2799 154.466 92.7108C154.354 93.1417 154.236 93.5477 154.113 93.9288C153.991 94.31 153.89 94.6133 153.81 94.8386H152.915C152.958 94.6265 153.015 94.3465 153.084 93.9984C153.154 93.6504 153.223 93.261 153.293 92.8301C153.366 92.4026 153.426 91.9651 153.472 91.5176L153.532 90.9608H154.804ZM160.896 92.3528V91.458L164.257 87.779C164.651 87.3481 164.976 86.9736 165.231 86.6554C165.486 86.3339 165.675 86.0323 165.798 85.7506C165.924 85.4655 165.987 85.1672 165.987 84.8557C165.987 84.4977 165.901 84.1878 165.728 83.926C165.559 83.6642 165.327 83.462 165.032 83.3195C164.737 83.1769 164.406 83.1057 164.038 83.1057C163.647 83.1057 163.305 83.1869 163.014 83.3493C162.725 83.5084 162.502 83.7321 162.343 84.0205C162.187 84.3088 162.109 84.6469 162.109 85.0347H160.936C160.936 84.4381 161.073 83.9144 161.348 83.4636C161.623 83.0129 161.998 82.6616 162.472 82.4097C162.949 82.1578 163.484 82.0318 164.078 82.0318C164.674 82.0318 165.203 82.1578 165.664 82.4097C166.124 82.6616 166.485 83.0013 166.747 83.4288C167.009 83.8564 167.14 84.332 167.14 84.8557C167.14 85.2302 167.072 85.5965 166.936 85.9544C166.804 86.309 166.572 86.7051 166.24 87.1426C165.912 87.5768 165.456 88.1071 164.873 88.7335L162.586 91.1795V91.2591H167.319V92.3528H160.896ZM172.693 92.492C171.944 92.492 171.306 92.2882 170.779 91.8805C170.252 91.4696 169.85 90.8746 169.571 90.0957C169.293 89.3135 169.154 88.3689 169.154 87.2619C169.154 86.1616 169.293 85.2219 169.571 84.443C169.853 83.6608 170.257 83.0643 170.784 82.6533C171.315 82.239 171.951 82.0318 172.693 82.0318C173.436 82.0318 174.07 82.239 174.597 82.6533C175.128 83.0643 175.532 83.6608 175.811 84.443C176.092 85.2219 176.233 86.1616 176.233 87.2619C176.233 88.3689 176.094 89.3135 175.816 90.0957C175.537 90.8746 175.134 91.4696 174.607 91.8805C174.08 92.2882 173.442 92.492 172.693 92.492ZM172.693 91.3983C173.436 91.3983 174.012 91.0403 174.423 90.3244C174.834 89.6085 175.04 88.5877 175.04 87.2619C175.04 86.3803 174.945 85.6296 174.757 85.0098C174.571 84.39 174.302 83.9177 173.951 83.5929C173.603 83.2681 173.184 83.1057 172.693 83.1057C171.958 83.1057 171.383 83.4686 170.968 84.1945C170.554 84.917 170.347 85.9395 170.347 87.2619C170.347 88.1436 170.44 88.8926 170.625 89.5091C170.811 90.1256 171.078 90.5946 171.426 90.9161C171.777 91.2376 172.2 91.3983 172.693 91.3983ZM178.122 92.3528V91.458L181.483 87.779C181.878 87.3481 182.202 86.9736 182.458 86.6554C182.713 86.3339 182.902 86.0323 183.024 85.7506C183.15 85.4655 183.213 85.1672 183.213 84.8557C183.213 84.4977 183.127 84.1878 182.955 83.926C182.786 83.6642 182.554 83.462 182.259 83.3195C181.964 83.1769 181.632 83.1057 181.264 83.1057C180.873 83.1057 180.532 83.1869 180.24 83.3493C179.952 83.5084 179.728 83.7321 179.569 84.0205C179.413 84.3088 179.335 84.6469 179.335 85.0347H178.162C178.162 84.4381 178.3 83.9144 178.575 83.4636C178.85 83.0129 179.224 82.6616 179.698 82.4097C180.176 82.1578 180.711 82.0318 181.304 82.0318C181.901 82.0318 182.429 82.1578 182.89 82.4097C183.351 82.6616 183.712 83.0013 183.974 83.4288C184.236 83.8564 184.367 84.332 184.367 84.8557C184.367 85.2302 184.299 85.5965 184.163 85.9544C184.03 86.309 183.798 86.7051 183.467 87.1426C183.139 87.5768 182.683 88.1071 182.1 88.7335L179.813 91.1795V91.2591H184.546V92.3528H178.122ZM189.98 92.492C189.562 92.4854 189.144 92.4059 188.727 92.2534C188.309 92.101 187.928 91.8441 187.583 91.4828C187.239 91.1182 186.962 90.626 186.753 90.0063C186.544 89.3831 186.44 88.601 186.44 87.6597C186.44 86.7581 186.524 85.9594 186.693 85.2634C186.862 84.564 187.108 83.9757 187.429 83.4984C187.751 83.0179 188.138 82.6533 188.593 82.4047C189.05 82.1561 189.565 82.0318 190.139 82.0318C190.709 82.0318 191.216 82.1462 191.66 82.3749C192.107 82.6002 192.472 82.9151 192.754 83.3195C193.035 83.7238 193.218 84.1895 193.301 84.7165H192.088C191.975 84.2591 191.756 83.8796 191.431 83.578C191.106 83.2764 190.676 83.1256 190.139 83.1256C189.35 83.1256 188.728 83.4686 188.274 84.1547C187.824 84.8408 187.597 85.8036 187.593 87.0432H187.673C187.858 86.7615 188.079 86.5212 188.334 86.3223C188.593 86.1201 188.878 85.9643 189.189 85.855C189.501 85.7456 189.83 85.6909 190.178 85.6909C190.762 85.6909 191.295 85.8367 191.779 86.1284C192.263 86.4168 192.651 86.8161 192.943 87.3266C193.234 87.8337 193.38 88.4153 193.38 89.0716C193.38 89.7013 193.239 90.278 192.958 90.8017C192.676 91.3221 192.28 91.7364 191.769 92.0446C191.262 92.3495 190.666 92.4987 189.98 92.492ZM189.98 91.3983C190.397 91.3983 190.772 91.2939 191.103 91.0851C191.438 90.8763 191.701 90.5962 191.894 90.2449C192.089 89.8936 192.187 89.5025 192.187 89.0716C192.187 88.6507 192.093 88.2679 191.904 87.9232C191.718 87.5751 191.461 87.2984 191.133 87.0929C190.808 86.8874 190.437 86.7847 190.019 86.7847C189.704 86.7847 189.411 86.8476 189.139 86.9736C188.868 87.0962 188.629 87.2652 188.423 87.4807C188.221 87.6961 188.062 87.943 187.946 88.2215C187.83 88.4965 187.772 88.7866 187.772 89.0915C187.772 89.4958 187.867 89.8737 188.056 90.225C188.248 90.5763 188.51 90.8597 188.841 91.0751C189.176 91.2906 189.555 91.3983 189.98 91.3983ZM196.627 90.9608L196.547 91.4977C196.491 91.8756 196.405 92.2799 196.289 92.7108C196.176 93.1417 196.058 93.5477 195.936 93.9288C195.813 94.31 195.712 94.6133 195.632 94.8386H194.737C194.78 94.6265 194.837 94.3465 194.906 93.9984C194.976 93.6504 195.046 93.261 195.115 92.8301C195.188 92.4026 195.248 91.9651 195.294 91.5176L195.354 90.9608H196.627ZM202.718 92.3528V91.458L206.079 87.779C206.473 87.3481 206.798 86.9736 207.053 86.6554C207.308 86.3339 207.497 86.0323 207.62 85.7506C207.746 85.4655 207.809 85.1672 207.809 84.8557C207.809 84.4977 207.723 84.1878 207.55 83.926C207.381 83.6642 207.149 83.462 206.854 83.3195C206.559 83.1769 206.228 83.1057 205.86 83.1057C205.469 83.1057 205.128 83.1869 204.836 83.3493C204.548 83.5084 204.324 83.7321 204.165 84.0205C204.009 84.3088 203.931 84.6469 203.931 85.0347H202.758C202.758 84.4381 202.895 83.9144 203.17 83.4636C203.446 83.0129 203.82 82.6616 204.294 82.4097C204.771 82.1578 205.307 82.0318 205.9 82.0318C206.496 82.0318 207.025 82.1578 207.486 82.4097C207.946 82.6616 208.308 83.0013 208.57 83.4288C208.831 83.8564 208.962 84.332 208.962 84.8557C208.962 85.2302 208.894 85.5965 208.759 85.9544C208.626 86.309 208.394 86.7051 208.062 87.1426C207.734 87.5768 207.279 88.1071 206.695 88.7335L204.408 91.1795V91.2591H209.141V92.3528H202.718ZM214.635 92.492C213.979 92.492 213.394 92.3794 212.88 92.154C212.37 91.9286 211.964 91.6154 211.662 91.2143C211.364 90.81 211.201 90.341 211.175 89.8074H212.428C212.454 90.1355 212.567 90.4189 212.766 90.6575C212.964 90.8929 213.225 91.0751 213.546 91.2044C213.868 91.3337 214.224 91.3983 214.615 91.3983C215.053 91.3983 215.44 91.3221 215.778 91.1696C216.116 91.0171 216.382 90.805 216.574 90.5332C216.766 90.2615 216.862 89.9466 216.862 89.5886C216.862 89.2141 216.769 88.8843 216.584 88.5993C216.398 88.3109 216.126 88.0856 215.768 87.9232C215.411 87.7608 214.973 87.6795 214.456 87.6795H213.641V86.5858H214.456C214.86 86.5858 215.215 86.5129 215.52 86.367C215.828 86.2212 216.068 86.0157 216.241 85.7506C216.416 85.4854 216.504 85.1739 216.504 84.8159C216.504 84.4712 216.428 84.1713 216.276 83.9161C216.123 83.6608 215.908 83.462 215.629 83.3195C215.354 83.1769 215.029 83.1057 214.655 83.1057C214.304 83.1057 213.972 83.1703 213.661 83.2996C213.352 83.4255 213.1 83.6095 212.905 83.8514C212.709 84.0901 212.603 84.3784 212.587 84.7165H211.393C211.413 84.1829 211.574 83.7155 211.876 83.3145C212.177 82.9101 212.572 82.5953 213.059 82.3699C213.549 82.1445 214.088 82.0318 214.675 82.0318C215.304 82.0318 215.845 82.1594 216.295 82.4146C216.746 82.6665 217.093 82.9996 217.335 83.4139C217.576 83.8282 217.697 84.2757 217.697 84.7563C217.697 85.3296 217.547 85.8185 217.245 86.2229C216.947 86.6272 216.541 86.9073 216.027 87.0631V87.1426C216.67 87.2487 217.172 87.5221 217.533 87.9629C217.895 88.4004 218.075 88.9423 218.075 89.5886C218.075 90.1421 217.924 90.6393 217.623 91.0801C217.325 91.5176 216.917 91.8623 216.4 92.1142C215.883 92.3661 215.295 92.492 214.635 92.492ZM220.984 91.0503C220.738 91.0503 220.528 90.9625 220.352 90.7868C220.177 90.6111 220.089 90.4007 220.089 90.1554C220.089 89.9101 220.177 89.6997 220.352 89.524C220.528 89.3483 220.738 89.2605 220.984 89.2605C221.229 89.2605 221.439 89.3483 221.615 89.524C221.791 89.6997 221.879 89.9101 221.879 90.1554C221.879 90.3178 221.837 90.467 221.754 90.6028C221.675 90.7387 221.567 90.8481 221.431 90.931C221.299 91.0105 221.149 91.0503 220.984 91.0503ZM220.984 85.8997C220.738 85.8997 220.528 85.8119 220.352 85.6362C220.177 85.4606 220.089 85.2501 220.089 85.0048C220.089 84.7596 220.177 84.5491 220.352 84.3734C220.528 84.1978 220.738 84.1099 220.984 84.1099C221.229 84.1099 221.439 84.1978 221.615 84.3734C221.791 84.5491 221.879 84.7596 221.879 85.0048C221.879 85.1672 221.837 85.3164 221.754 85.4523C221.675 85.5882 221.567 85.6975 221.431 85.7804C221.299 85.8599 221.149 85.8997 220.984 85.8997ZM227.146 92.492C226.563 92.492 226.037 92.376 225.57 92.144C225.103 91.912 224.728 91.5938 224.446 91.1895C224.165 90.7851 224.011 90.3244 223.984 89.8074H225.177C225.224 90.2681 225.432 90.6492 225.804 90.9509C226.178 91.2492 226.626 91.3983 227.146 91.3983C227.564 91.3983 227.935 91.3005 228.26 91.105C228.588 90.9094 228.845 90.641 229.03 90.2996C229.219 89.9549 229.314 89.5654 229.314 89.1313C229.314 88.6871 229.216 88.2911 229.02 87.943C228.828 87.5917 228.563 87.315 228.225 87.1128C227.887 86.9106 227.501 86.8079 227.066 86.8045C226.755 86.8012 226.435 86.8493 226.107 86.9487C225.779 87.0448 225.509 87.1691 225.297 87.3216L224.143 87.1824L224.76 82.171H230.049V83.2648H225.794L225.436 86.2676H225.495C225.704 86.1019 225.966 85.9643 226.281 85.855C226.596 85.7456 226.924 85.6909 227.265 85.6909C227.888 85.6909 228.444 85.8401 228.931 86.1384C229.421 86.4333 229.806 86.8377 230.084 87.3514C230.366 87.8652 230.507 88.4518 230.507 89.1114C230.507 89.761 230.361 90.341 230.069 90.8514C229.781 91.3585 229.383 91.7596 228.876 92.0545C228.369 92.3462 227.792 92.492 227.146 92.492ZM235.723 82.0318C236.141 82.0351 236.558 82.1147 236.976 82.2705C237.394 82.4262 237.775 82.6848 238.119 83.046C238.464 83.404 238.741 83.8929 238.95 84.5126C239.159 85.1324 239.263 85.9097 239.263 86.8443C239.263 87.7492 239.177 88.5529 239.004 89.2555C238.835 89.9549 238.59 90.5448 238.269 91.0254C237.95 91.506 237.563 91.8706 237.105 92.1192C236.651 92.3678 236.137 92.492 235.564 92.492C234.994 92.492 234.485 92.3794 234.038 92.154C233.594 91.9253 233.229 91.6088 232.944 91.2044C232.662 90.7967 232.482 90.3244 232.402 89.7875H233.615C233.725 90.2548 233.942 90.641 234.267 90.9459C234.595 91.2475 235.027 91.3983 235.564 91.3983C236.35 91.3983 236.969 91.0553 237.423 90.3692C237.881 89.6831 238.11 88.7136 238.11 87.4608H238.03C237.844 87.7392 237.624 87.9795 237.369 88.1817C237.114 88.3839 236.83 88.5396 236.519 88.649C236.207 88.7584 235.876 88.8131 235.524 88.8131C234.941 88.8131 234.406 88.6689 233.919 88.3805C233.435 88.0889 233.047 87.6895 232.755 87.1824C232.467 86.672 232.323 86.0886 232.323 85.4324C232.323 84.8093 232.462 84.2392 232.74 83.7222C233.022 83.2018 233.416 82.7875 233.923 82.4793C234.434 82.171 235.034 82.0219 235.723 82.0318ZM235.723 83.1256C235.306 83.1256 234.929 83.23 234.595 83.4388C234.263 83.6443 234 83.9227 233.804 84.274C233.612 84.622 233.516 85.0081 233.516 85.4324C233.516 85.8566 233.609 86.2428 233.794 86.5908C233.983 86.9355 234.24 87.2106 234.565 87.4161C234.893 87.6182 235.266 87.7193 235.683 87.7193C235.998 87.7193 236.292 87.658 236.563 87.5354C236.835 87.4094 237.072 87.2387 237.274 87.0233C237.48 86.8045 237.641 86.5576 237.757 86.2825C237.873 86.0041 237.931 85.7141 237.931 85.4125C237.931 85.0148 237.834 84.6419 237.642 84.2939C237.453 83.9459 237.191 83.6642 236.857 83.4487C236.525 83.2333 236.147 83.1256 235.723 83.1256ZM245.593 87.2619C245.593 86.0091 245.755 84.8573 246.08 83.8067C246.408 82.7527 246.876 81.7832 247.482 80.8983H248.516C248.278 81.2264 248.054 81.6308 247.845 82.1114C247.64 82.5886 247.459 83.114 247.303 83.6874C247.147 84.2574 247.025 84.8474 246.935 85.4572C246.849 86.0671 246.806 86.6687 246.806 87.2619C246.806 88.0508 246.882 88.8512 247.035 89.6632C247.187 90.4752 247.393 91.2293 247.651 91.9253C247.91 92.6213 248.198 93.1881 248.516 93.6256H247.482C246.876 92.7406 246.408 91.7728 246.08 90.7222C245.755 89.6682 245.593 88.5148 245.593 87.2619ZM257.089 82.171H258.322V88.9125C258.322 89.6085 258.157 90.23 257.829 90.7768C257.505 91.3204 257.046 91.7496 256.452 92.0645C255.859 92.376 255.163 92.5318 254.364 92.5318C253.565 92.5318 252.869 92.376 252.276 92.0645C251.683 91.7496 251.222 91.3204 250.894 90.7768C250.569 90.23 250.407 89.6085 250.407 88.9125V82.171H251.64V88.8131C251.64 89.3102 251.749 89.7527 251.968 90.1405C252.187 90.525 252.498 90.8282 252.903 91.0503C253.31 91.269 253.797 91.3784 254.364 91.3784C254.931 91.3784 255.418 91.269 255.826 91.0503C256.233 90.8282 256.545 90.525 256.76 90.1405C256.979 89.7527 257.089 89.3102 257.089 88.8131V82.171ZM260.227 83.2648V82.171H267.863V83.2648H264.662V92.3528H263.429V83.2648H260.227ZM277.536 85.3528H276.303C276.23 84.9982 276.102 84.6867 275.92 84.4182C275.741 84.1497 275.522 83.9243 275.263 83.742C275.008 83.5564 274.725 83.4172 274.413 83.3244C274.102 83.2316 273.777 83.1852 273.439 83.1852C272.822 83.1852 272.264 83.341 271.763 83.6526C271.266 83.9641 270.87 84.4232 270.575 85.0297C270.284 85.6362 270.138 86.3803 270.138 87.2619C270.138 88.1436 270.284 88.8876 270.575 89.4942C270.87 90.1007 271.266 90.5598 271.763 90.8713C272.264 91.1829 272.822 91.3386 273.439 91.3386C273.777 91.3386 274.102 91.2922 274.413 91.1994C274.725 91.1066 275.008 90.9691 275.263 90.7868C275.522 90.6012 275.741 90.3742 275.92 90.1057C276.102 89.8339 276.23 89.5224 276.303 89.171H277.536C277.443 89.6914 277.274 90.1571 277.028 90.568C276.783 90.979 276.478 91.3287 276.114 91.617C275.749 91.9021 275.34 92.1192 274.886 92.2683C274.435 92.4175 273.953 92.492 273.439 92.492C272.571 92.492 271.798 92.2799 271.122 91.8557C270.446 91.4314 269.914 90.8282 269.526 90.046C269.138 89.2638 268.945 88.3358 268.945 87.2619C268.945 86.1881 269.138 85.26 269.526 84.4778C269.914 83.6956 270.446 83.0924 271.122 82.6682C271.798 82.2439 272.571 82.0318 273.439 82.0318C273.953 82.0318 274.435 82.1064 274.886 82.2555C275.34 82.4047 275.749 82.6234 276.114 82.9118C276.478 83.1968 276.783 83.5448 277.028 83.9558C277.274 84.3635 277.443 84.8292 277.536 85.3528ZM282.352 90.5631V84.0006H283.465V90.5631H282.352ZM279.627 87.8386V86.725H286.19V87.8386H279.627ZM291.839 92.492C291.156 92.492 290.553 92.3711 290.029 92.1291C289.509 91.8839 289.103 91.5474 288.811 91.1199C288.519 90.689 288.375 90.1985 288.379 89.6483C288.375 89.2174 288.46 88.8197 288.632 88.4551C288.804 88.0872 289.04 87.7806 289.338 87.5354C289.64 87.2868 289.976 87.1294 290.347 87.0631V87.0034C289.86 86.8775 289.472 86.604 289.184 86.1831C288.896 85.7589 288.753 85.2766 288.756 84.7364C288.753 84.2193 288.884 83.757 289.149 83.3493C289.414 82.9416 289.779 82.6201 290.243 82.3848C290.71 82.1495 291.242 82.0318 291.839 82.0318C292.429 82.0318 292.956 82.1495 293.42 82.3848C293.884 82.6201 294.248 82.9416 294.513 83.3493C294.782 83.757 294.918 84.2193 294.921 84.7364C294.918 85.2766 294.77 85.7589 294.479 86.1831C294.19 86.604 293.808 86.8775 293.33 87.0034V87.0631C293.698 87.1294 294.03 87.2868 294.325 87.5354C294.62 87.7806 294.855 88.0872 295.031 88.4551C295.206 88.8197 295.296 89.2174 295.299 89.6483C295.296 90.1985 295.147 90.689 294.852 91.1199C294.56 91.5474 294.154 91.8839 293.634 92.1291C293.116 92.3711 292.518 92.492 291.839 92.492ZM291.839 91.3983C292.299 91.3983 292.697 91.3237 293.032 91.1746C293.367 91.0254 293.625 90.815 293.808 90.5432C293.99 90.2714 294.083 89.9532 294.086 89.5886C294.083 89.2042 293.983 88.8644 293.788 88.5695C293.592 88.2745 293.325 88.0425 292.987 87.8734C292.652 87.7044 292.27 87.6199 291.839 87.6199C291.405 87.6199 291.017 87.7044 290.675 87.8734C290.337 88.0425 290.071 88.2745 289.875 88.5695C289.683 88.8644 289.588 89.2042 289.592 89.5886C289.588 89.9532 289.676 90.2714 289.855 90.5432C290.037 90.815 290.298 91.0254 290.636 91.1746C290.974 91.3237 291.375 91.3983 291.839 91.3983ZM291.839 86.5659C292.203 86.5659 292.527 86.493 292.808 86.3472C293.093 86.2013 293.317 85.9975 293.479 85.7357C293.642 85.4738 293.725 85.1672 293.728 84.8159C293.725 84.4712 293.643 84.1713 293.484 83.9161C293.325 83.6575 293.105 83.4587 292.823 83.3195C292.541 83.1769 292.213 83.1057 291.839 83.1057C291.458 83.1057 291.125 83.1769 290.839 83.3195C290.554 83.4587 290.334 83.6575 290.178 83.9161C290.022 84.1713 289.946 84.4712 289.95 84.8159C289.946 85.1672 290.024 85.4738 290.183 85.7357C290.346 85.9975 290.569 86.2013 290.854 86.3472C291.139 86.493 291.468 86.5659 291.839 86.5659ZM299.73 87.2619C299.73 88.5148 299.566 89.6682 299.238 90.7222C298.913 91.7728 298.447 92.7406 297.841 93.6256H296.807C297.045 93.2974 297.267 92.8931 297.473 92.4125C297.682 91.9352 297.864 91.4116 298.02 90.8415C298.175 90.2681 298.296 89.6765 298.383 89.0666C298.472 88.4535 298.517 87.8519 298.517 87.2619C298.517 86.4731 298.441 85.6727 298.288 84.8607C298.136 84.0486 297.93 83.2946 297.672 82.5986C297.413 81.9026 297.125 81.3358 296.807 80.8983H297.841C298.447 81.7832 298.913 82.7527 299.238 83.8067C299.566 84.8573 299.73 86.0091 299.73 87.2619Z" fill="#2A2A2A"/>
<path d="M0 12C0 5.37258 5.37258 0 12 0H158.313C161.082 0 163.014 2.74593 162.078 5.35209L152.021 33.3521C151.451 34.9406 149.944 36 148.257 36H0V12Z" fill="url(#paint0_linear_12671_1818)"/>
<path d="M24.0198 12.576H32.2598V14.176H25.8918V17.344H31.8758V18.944H25.8918V22.4H32.5318V24H24.0198V12.576ZM33.2454 15.728H35.2294L37.2134 21.728L39.1974 15.728H41.1814L38.1254 24H36.3014L33.2454 15.728ZM45.7392 15.504C47.0992 15.504 48.1392 15.952 48.8592 16.88C49.5152 17.712 49.8512 18.88 49.8512 20.368H43.6592C43.7232 21.136 43.9312 21.728 44.2832 22.128C44.6352 22.528 45.1472 22.736 45.8032 22.736C46.3632 22.736 46.8112 22.608 47.1632 22.352C47.4352 22.144 47.6752 21.808 47.8992 21.344H49.7232C49.5312 22.112 49.1472 22.768 48.5712 23.28C47.8352 23.904 46.9232 24.224 45.8192 24.224C44.5872 24.224 43.6112 23.84 42.8912 23.088C42.1232 22.304 41.7392 21.232 41.7392 19.856C41.7392 18.624 42.0912 17.6 42.8272 16.768C43.5312 15.92 44.5072 15.504 45.7392 15.504ZM45.7872 16.992C45.1792 16.992 44.7152 17.152 44.3632 17.504C44.0272 17.84 43.8032 18.336 43.6912 18.992H47.9472C47.7872 17.648 47.0672 16.992 45.7872 16.992ZM55.5693 15.504C57.6333 15.504 58.6733 16.624 58.6733 18.896V24H56.8493V19.056C56.8493 17.696 56.2253 17.024 54.9773 17.024C54.5293 17.024 54.1293 17.184 53.7933 17.504C53.4093 17.856 53.1853 18.368 53.1213 19.024V24H51.2973V15.728H53.1213V16.688C53.4413 16.304 53.8093 16 54.2093 15.808C54.6253 15.6 55.0733 15.504 55.5693 15.504ZM63.1862 13.056V15.728H65.0262V17.232H63.1862V21.904C63.1862 22.096 63.2182 22.24 63.3142 22.352C63.4102 22.448 63.5382 22.496 63.7302 22.496H64.8182V24H63.4262C62.7062 24 62.1782 23.808 61.8422 23.424C61.5222 23.072 61.3622 22.576 61.3622 21.904V17.232H59.8742V15.728H61.3622V13.808L63.1862 13.056ZM71.8792 12.576H76.0552C77.9112 12.576 79.3032 13.088 80.2632 14.112C81.1752 15.072 81.6392 16.464 81.6392 18.288C81.6392 20.096 81.1752 21.488 80.2632 22.464C79.3032 23.488 77.9112 24 76.0552 24H71.8792V12.576ZM73.7512 14.176V22.4H75.7032C77.1272 22.4 78.1672 22.064 78.8232 21.408C79.4632 20.736 79.7832 19.696 79.7832 18.288C79.7832 16.848 79.4632 15.792 78.8232 15.152C78.1672 14.496 77.1272 14.176 75.7032 14.176H73.7512ZM83.2348 15.728H85.0588V20.768C85.0588 21.44 85.1868 21.92 85.4748 22.24C85.7628 22.544 86.2108 22.704 86.8508 22.704C87.2508 22.704 87.6348 22.528 88.0028 22.192C88.3708 21.84 88.6428 21.376 88.8028 20.784V15.728H90.6268V24H88.8028V22.928C88.0988 23.792 87.2348 24.224 86.2108 24.224C84.2268 24.224 83.2348 23.104 83.2348 20.88V15.728ZM96.4513 15.504C96.8513 15.504 97.2033 15.568 97.4913 15.712V17.536C97.0753 17.408 96.6913 17.36 96.3073 17.36C95.8273 17.36 95.3953 17.536 95.0113 17.92C94.5633 18.352 94.3553 18.912 94.3553 19.616V24H92.5473V15.728H94.3553V16.912C94.5793 16.496 94.8353 16.176 95.1393 15.952C95.5073 15.648 95.9393 15.504 96.4513 15.504ZM102.292 15.504C103.508 15.504 104.42 15.808 104.996 16.416C105.508 16.944 105.764 17.712 105.764 18.72V24H104.068V22.912C103.748 23.328 103.348 23.632 102.884 23.856C102.356 24.096 101.732 24.224 101.012 24.224C100.148 24.224 99.4757 24 98.9797 23.568C98.4677 23.12 98.2117 22.56 98.2117 21.872C98.2117 20.944 98.5637 20.224 99.2997 19.728C99.9717 19.248 100.916 18.992 102.132 18.96L103.94 18.912V18.592C103.94 17.504 103.348 16.976 102.164 16.976C101.652 16.976 101.252 17.056 100.948 17.248C100.596 17.456 100.356 17.776 100.26 18.208L98.4517 18.064C98.6277 17.152 99.0757 16.48 99.7957 16.064C100.404 15.68 101.236 15.504 102.292 15.504ZM103.94 20.224L102.26 20.272C100.804 20.304 100.084 20.816 100.084 21.808C100.084 22.096 100.196 22.336 100.452 22.528C100.708 22.72 101.028 22.832 101.428 22.832C102.132 22.832 102.724 22.624 103.204 22.224C103.684 21.808 103.94 21.28 103.94 20.64V20.224ZM110.28 13.056V15.728H112.12V17.232H110.28V21.904C110.28 22.096 110.312 22.24 110.408 22.352C110.504 22.448 110.632 22.496 110.824 22.496H111.912V24H110.52C109.8 24 109.272 23.808 108.936 23.424C108.616 23.072 108.456 22.576 108.456 21.904V17.232H106.968V15.728H108.456V13.808L110.28 13.056ZM114.717 12.352C115.069 12.352 115.373 12.464 115.613 12.688C115.837 12.912 115.965 13.2 115.965 13.552C115.965 13.904 115.837 14.208 115.597 14.432C115.357 14.656 115.069 14.768 114.717 14.768C114.365 14.768 114.077 14.656 113.837 14.432C113.597 14.192 113.485 13.904 113.485 13.552C113.485 13.2 113.597 12.912 113.837 12.688C114.077 12.464 114.365 12.352 114.717 12.352ZM113.805 15.728H115.629V24H113.805V15.728ZM121.731 15.504C122.979 15.504 123.987 15.904 124.755 16.736C125.507 17.552 125.891 18.592 125.891 19.872C125.891 21.136 125.507 22.176 124.771 22.976C124.003 23.808 122.979 24.224 121.731 24.224C120.467 24.224 119.459 23.808 118.691 22.976C117.939 22.176 117.571 21.136 117.571 19.872C117.571 18.592 117.939 17.552 118.707 16.736C119.459 15.904 120.467 15.504 121.731 15.504ZM121.731 16.992C120.963 16.992 120.387 17.28 119.971 17.888C119.619 18.4 119.443 19.072 119.443 19.872C119.443 20.672 119.619 21.328 119.971 21.84C120.387 22.432 120.963 22.736 121.731 22.736C122.483 22.736 123.075 22.432 123.491 21.84C123.843 21.312 124.035 20.656 124.035 19.872C124.035 19.072 123.843 18.4 123.491 17.888C123.075 17.28 122.483 16.992 121.731 16.992ZM131.757 15.504C133.821 15.504 134.861 16.624 134.861 18.896V24H133.037V19.056C133.037 17.696 132.413 17.024 131.165 17.024C130.717 17.024 130.317 17.184 129.981 17.504C129.597 17.856 129.373 18.368 129.309 19.024V24H127.485V15.728H129.309V16.688C129.629 16.304 129.997 16 130.397 15.808C130.813 15.6 131.261 15.504 131.757 15.504Z" fill="white"/>
<defs>
<linearGradient id="paint0_linear_12671_1818" x1="-3.97525" y1="13.8308" x2="156.428" y2="13.8308" gradientUnits="userSpaceOnUse">
<stop stop-color="#005AFF"/>
<stop offset="1" stop-color="#6A9EFF"/>
</linearGradient>
</defs>
</svg>
